<svg id="Layer_1" data-name="Layer 1" xmlns="http://www.w3.org/2000/svg" xmlns:xlink="http://www.w3.org/1999/xlink" viewBox="0 0 1379.336 1969.5544"><defs><style>.cls-1{fill:url(#linear-gradient);}</style><linearGradient id="linear-gradient" x1="1163.1561" y1="2046.6401" x2="1164.1561" y2="2046.6401" gradientTransform="matrix(1379.336, 0, 0, -1969.5544, -1603607.596, 4032564.1053)" gradientUnits="userSpaceOnUse"><stop offset="0" stop-color="#6d7cff"/><stop offset="1" stop-color="#ff51ff"/></linearGradient></defs><g id="SvgjsG6600"><path class="cls-1" d="M1166.7955,2579.88l-47.5633-8.6479c-23.7817-4.3239-54.0492-12.9718-69.183-21.62s-30.2676-17.2958-36.7535-19.4578-15.1337-10.81-17.2957-17.2957c-4.3239-8.6479-10.81-17.2957-17.2958-19.4578s-15.1337-8.6479-21.62-12.9718l-4.324-6.4859,12.9718,2.162c0-2.162-8.6478-10.81-23.7816-21.62-28.1056-19.4578-92.9646-114.5844-97.2886-134.0421,0-8.6479-4.3239-17.2957-6.4859-19.4578-4.3239-2.162-10.81-15.1337-15.1338-30.2675-4.3239-17.2958-10.81-34.5915-12.9718-41.0774l-21.62-123.2321c-8.6478-64.8591-12.9718-97.2886-12.9718-118.9083l2.162-25.9436c4.3239-21.62,10.81-36.7535,15.1338-36.7535,12.9718-4.3239,23.7816-32.43,23.7816-49.7253,0-4.3239,0-8.648-2.1619-10.81-2.162-4.3239-8.6479-6.486-10.81-6.486l-4.3239,2.1621,6.4859,12.9718c0,2.162,0,2.162-4.324,2.162s-8.6478-4.3239-10.81-8.6479c0-10.81,6.4859-56.2113,10.81-56.2113,2.162,0,2.162-4.3239,2.162-6.4859v-17.2957c0-12.9718,2.162-30.2676,10.81-56.2112l6.4859-34.5915c2.1619-12.9718,8.6478-38.9155,15.1337-58.3731l12.9718-41.0774c0-15.1337,32.43-101.6125,36.7535-105.9365l4.3239-2.1619c4.324,0,6.486,4.324,6.486,8.6479a16.514,16.514,0,0,1-4.324,10.81c-4.3239,6.4859-6.4859,15.1337-6.4859,23.7816,2.162,6.4859,2.162,8.6479,4.3239,8.6479l6.486-4.324c4.3239-6.4859,8.6478-23.7816,8.6478-36.7535,0-8.6478-2.1619-17.2957-6.4859-17.2957s-8.6479-4.324-8.6479-10.81v-2.162c0-10.81,10.81-43.2394,15.1338-47.5633,2.162-2.1619,10.81-19.4577,17.2958-38.9154s15.1337-41.0774,19.4577-45.4013c2.162-4.324,4.3239-10.81,4.3239-15.1338,0-2.162,0-6.4859,4.324-8.6479,2.1619-2.1619,10.81-15.1338,17.2957-28.1056,6.4859-15.1338,15.1338-25.9436,19.4577-25.9436l2.162-2.1619v-4.324c0-15.1338,25.9436-77.8309,38.9154-95.1266,4.324-4.324,6.4859-6.4859,8.6479-6.4859s2.162,2.1619,2.162,4.324c0,10.81-6.4859,32.4295-17.2958,60.5351-8.6479,15.1338-10.81,19.4577-34.5915,54.0492l-23.7816,54.0492c-4.324,19.4578-10.81,36.7535-15.1338,38.9154s-6.4859,6.4859-6.4859,8.6479q0,6.486,6.4859,6.4859c2.1619,0,10.81-10.81,17.2957-25.9436s17.2958-30.2675,25.9437-34.5914c6.4859-2.162,8.6478-6.486,8.6478-8.6479v-8.6479c0-15.1338,10.81-51.8872,19.4577-60.5351,4.324-4.324,23.7817-49.7252,23.7817-56.2112v-12.9718c0-4.324,4.3239-8.6479,8.6479-8.6479s15.1337-12.9718,21.62-28.1056l28.1055-47.5633,56.2112-79.9928c8.6479-12.9718,15.1338-23.7816,15.1338-25.9436,0-10.81,114.5843-144.8519,151.3378-177.2814,21.62-19.4577,41.0774-36.7535,43.2393-41.0774,4.324-4.324,8.6479-8.6479,12.9719-8.6479,2.1619,0,8.6478-6.4859,17.2957-12.9718,15.1338-17.2957,38.9154-34.5915,60.5351-47.5633,6.4859-2.162,10.81-6.4859,10.81-8.6479l-2.1619-2.162c-4.324,0-10.81,2.162-15.1338,4.324-6.4859,8.6478-38.9154,21.62-49.7252,21.62l-4.324-2.162c0-2.162,10.81-10.81,25.9436-21.62,15.1338-8.6479,28.1056-21.62,28.1056-25.9436v-2.162c0-2.1619,2.1619-2.1619,4.324-2.1619h10.81a11.8894,11.8894,0,0,0,10.81-6.4859c8.6479-21.62,62.6971-36.7535,112.4223-36.7535,17.2957,0,32.43,2.162,47.5633,4.3239,15.1338,4.324,38.9154,15.1338,51.8873,25.9437,28.1056,19.4577,73.5069,69.183,73.5069,82.1548v4.3239c0,8.6479,21.62,45.4013,43.2394,73.5069,19.4577,23.7817,38.9154,82.1548,38.9154,123.2322v17.2958c0,23.7816-4.324,32.4295-21.62,51.8872-8.6479,12.9718-19.4578,19.4577-23.7817,19.4577l-2.1619-2.1619,2.1619-8.6479-6.4859,4.324-8.6478,4.324c-2.162,0-12.9719,6.4859-21.62,17.2957-34.5915,36.7535-75.6689,69.183-88.6407,69.183-6.4859,0-8.6479,0-8.6479-4.324l4.324-8.6479c0-2.1619,0-2.1619-4.324-2.1619h-12.9718c-4.324,0-8.6479-2.162-8.6479-6.4859,0-8.6479,8.6479-23.7817,23.7817-49.7253,15.1338-23.7816,28.1056-49.7252,30.2675-56.2111,0-8.6479,6.486-21.62,10.81-28.1056,4.3239-8.6479,8.6478-17.2957,8.6478-23.7817q0-6.4858-6.4859-6.4859l-10.81,4.324v-2.162l6.4859-15.1338q0-3.243-6.4859-6.4859c-2.162-2.162-4.324-4.324-4.324-6.4859l4.324-8.6479c6.4859-10.81,10.81-19.4577,10.81-25.9436,0-15.1338-10.81-23.7817-32.4295-23.7817-19.4578,0-95.1266,19.4577-134.042,34.5915-28.1056,10.81-108.0985,60.5351-114.5844,71.345,0,2.162-10.81,12.9718-21.62,21.62s-19.4577,23.7816-21.62,30.2676c0,8.6478-4.3239,15.1337-10.81,15.1337-12.9718,0-41.0774,28.1057-41.0774,41.0774l2.162,4.324-4.3239,2.1619h-2.162c-6.4859,0-10.81,10.81-15.1338,25.9436,0,6.4859-6.4859,10.81-12.9718,10.81-8.6479,0-10.81,4.324-10.81,12.9719v4.3239q0,6.486-6.4859,6.486c-4.3239,0-6.4859-2.162-6.4859-4.324V1096.77l-4.3239,4.3239-4.324,6.486c0,2.1619,2.162,2.1619,4.324,4.3239,4.3239,2.162,4.3239,4.324,4.3239,6.4859a13.9741,13.9741,0,0,1-4.3239,10.81,11.89,11.89,0,0,1-10.81,6.4859H1259.76l-6.4859,2.1619v2.162a4.65,4.65,0,0,0,4.3239,4.3239l2.162,2.162-4.3239,8.6479c-10.81,10.81-25.9437,19.4577-34.5915,19.4577h-2.162c-4.324,0-4.324,2.162-4.324,4.324s4.324,8.6478,8.6479,12.9718l4.3239,4.324v2.1619l-21.62-4.3239,8.6479,6.4859c4.3239,4.3239,8.6479,8.6478,8.6479,10.81h-2.162c-10.81,0-41.0774,36.7535-41.0774,47.5633v6.4859c0,4.324-4.3239,10.81-8.6479,12.9718-12.9718,6.4859-25.9436,30.2676-25.9436,47.5633v4.324q0,6.486-6.4859,6.4859c-6.4859,0-8.6479,4.324-8.6479,8.6479s0,8.6478-2.162,8.6478c-4.3239,0-8.6478,12.9719-12.9718,28.1057s-8.6478,25.9436-10.81,25.9436-8.6479,4.3239-15.1338,10.81l-4.3239,4.3239,6.4859-2.1619c2.162,0,2.162,2.1619,2.162,4.324a18.7336,18.7336,0,0,1-8.6479,15.1337,11.89,11.89,0,0,0-6.4859,10.81v8.6479c0,6.4859-2.162,15.1338-8.6479,25.9436-6.4859,12.9718-10.81,28.1056-10.81,30.2676a4.65,4.65,0,0,1-4.324,4.3239l-10.81-4.3239-2.162,2.1619,2.162,10.81c0,6.486-2.162,12.9719-4.324,19.4578-15.1337,21.62-17.2957,25.9437-17.2957,34.5915,0,19.4577-12.9718,60.5351-17.2957,60.5351-2.162,0-4.324,4.3239-4.324,8.6479v2.162c0,15.1337-15.1338,54.0492-21.62,54.0492-4.3239,0-15.1337,56.2113-15.1337,67.0211v2.162c0,10.81-8.6479,38.9155-19.4578,73.507-4.3239,12.9718-6.4859,28.1055-6.4859,34.5914v4.3239c0,2.162,0,4.3239-2.1619,4.3239s-4.324,6.4859-4.324,10.81c0,6.486-2.1619,34.5915-8.6478,62.6972l-8.6479,60.5351-4.3239,21.62c-4.324,10.81-6.4859,32.43-6.4859,58.3732,0,73.5069,15.1337,183.7672,32.4295,211.8729,15.1338,21.62,60.5351,43.2394,103.7745,47.5633,19.4577,2.162,36.7534,6.4859,36.7534,10.81,0,2.162,0,2.162,2.162,2.162l2.162-2.162c2.162-6.4859,12.9718-10.81,19.4577-10.81,2.162,0,4.3239,0,4.3239,2.162l2.162,2.162,8.6479-4.3239c4.3239-6.4859,10.81-10.81,17.2957-10.81l6.4859,2.162c0,2.1621-2.1619,2.1621-4.3239,4.3239s-4.3239,4.3239-4.3239,6.486h6.4859c4.3239,0,8.6479-2.1621,8.6479-6.486v-2.162c0-2.162,2.1619-4.3239,6.4859-4.3239h6.4859c19.4577,0,67.021-15.1337,67.021-23.7816,0-2.162,4.3239-4.3239,10.81-4.3239s12.9718-4.3239,15.1338-6.4859c4.324-8.648,47.5633-34.5915,84.3168-47.5633,17.2957-6.486,38.9155-21.62,47.5633-32.43s34.5915-30.2676,56.2112-43.2394,38.9154-28.1056,38.9154-32.43c0-2.162,0-4.3239,2.162-4.3239h2.1619c6.4859,0,67.0211-45.4013,90.8027-69.1829,4.324-2.162,23.7817-19.4578,43.2394-36.7535s38.9154-34.5915,41.0774-38.9155c0-4.3239,8.6479-8.6479,15.1338-8.6479l8.6478-2.1621v-2.162c0-4.3239,6.486-8.6479,15.1338-15.1337s17.2958-10.81,17.2958-15.1337,4.3239-8.6479,10.81-8.6479c4.3239-2.162,19.4577-17.2958,34.5914-30.2676,12.9719-15.1337,28.1056-28.1055,32.4295-28.1055,6.486,0,8.6479-4.3239,8.6479-8.648v-2.162c0-6.4859,6.4859-12.9718,15.1338-17.2957,8.6479-6.4859,15.1338-15.1337,15.1338-19.4578,0-2.162,2.1619-6.4859,8.6478-6.4859,4.324,0,28.1057-21.62,49.7253-47.5633,25.9436-25.9437,41.0774-41.0774,45.4013-41.0774l6.4859,2.1621q3.243,0,6.4859-12.9719c4.3239-10.81,10.81-17.2957,15.1337-17.2957h2.162l2.162-4.3239v-4.3239a4.65,4.65,0,0,1,4.3239-4.3239h2.1621q6.4859,0,6.4859,6.4859l2.162,8.6479,6.4859-15.1337c0-4.3239-2.162-6.4859-4.3239-8.6479s-4.3239-4.3239-4.3239-6.4859l4.3239-6.4859,36.7535-38.9155c17.2957-23.7817,32.43-32.43,43.2394-32.43s21.62-8.6479,34.5915-25.9437,23.7816-25.9436,32.43-25.9436c2.1621,0,4.3239,2.162,4.3239,8.6479v2.162c-2.162,6.4859-4.3239,10.81-6.4859,10.81a4.65,4.65,0,0,0-4.3239,4.3239l2.162,15.1337c0,4.3239-2.162,6.4859-4.3239,6.4859-4.3239,0-6.4859,2.1621-6.4859,4.3239,0,4.3239-2.162,4.3239-6.4859,4.3239l-4.3239-2.162-4.3239,4.3239v2.162c0,2.1621,2.162,4.3239,6.4859,4.3239,6.4859,0,10.81,2.1621,10.81,4.3239,0,4.3239-2.162,6.486-4.3239,6.486s-6.4859,6.4859-6.4859,12.9718v4.3239c0,2.162,0,4.3239,2.162,4.3239,4.3239,0,12.9719-8.6479,23.7817-25.9437,6.4859-10.81,17.2957-19.4577,19.4577-19.4577l2.1621,2.162-8.648,12.9718c-8.6479,6.4859-12.9718,12.9719-12.9718,17.2958l4.3239,12.9718-2.162,4.3239a48.6935,48.6935,0,0,0-15.1337,2.162c-6.486,0-15.1338,0-19.4578-4.3239l-6.4859-2.162c-2.162,0-6.4859,2.162-10.81,6.4859l-6.4859,6.4859,4.3239,2.162c4.3239,0,4.3239,0,4.3239,2.1621l-4.3239,12.9718c0,2.162,2.162,2.162,6.4859,2.162l6.4859,2.162-2.162,2.162h-4.3239c-4.3239,0-8.648-2.162-12.9719-4.3239l-8.6479-4.3239-8.6479,4.3239c0,2.1621,2.162,6.486,8.6479,8.648,4.3239,4.3239,6.4859,6.4859,6.4859,8.6479l-2.162,4.3239h-2.162c-2.162,0-4.3239,0-4.3239-2.162l-2.162-2.162c-2.162,0-4.3239,0-6.4859,4.3239l-8.648,10.81c0,2.162,2.162,2.162,4.3239,2.162h4.3239c2.162,0,6.4859,2.162,10.81,6.4859v6.4859l-6.4859-2.162c-2.162,0-4.3239,4.3239-6.4859,8.648,0,6.4859-6.4859,10.81-10.81,10.81-6.4859,0-8.648-2.162-8.648-6.4859q0-3.2431,6.486-6.486l2.162-2.162h-6.4859c-6.4859,2.162-10.81,4.3239-10.81,10.81v8.648h-4.3239c-4.3239,0-4.3239,2.162-6.486,4.3239v2.162a9.47,9.47,0,0,0,6.486,2.162c4.3239,0,10.81,4.3239,12.9718,8.6479v4.3239a4.65,4.65,0,0,1-4.3239,4.3239c-6.4859,0-8.6479-2.162-10.81-6.4859,0-2.162-2.162-4.3239-6.4859-4.3239-2.1621,0-2.1621,2.162-2.1621,4.3239l4.3239,17.2957-2.162-2.162q-3.243-6.4858-12.9718-6.4859c-6.4859,0-12.9718,4.3239-19.4578,10.81s-8.6479,8.648-8.6479,10.81,4.3239,2.1621,12.9718,2.1621,17.2958,2.162,17.2958,6.4859c0,2.162-2.1621,4.3239-6.4859,4.3239s-12.9719,6.4859-21.62,15.1337c-6.4859,6.4859-8.6479,8.6479-10.81,8.6479l8.6479-8.6479,4.3239-12.9718c0-2.1621,0-2.1621-2.162-2.1621-8.6479,0-15.1337,12.9719-17.2957,28.1056,0,4.3239-4.3239,12.9718-10.81,17.2957s-12.9719,8.648-15.1338,12.9719h-2.162l-2.1619-4.3239c0-6.486-2.162-10.81-6.4859-10.81s-8.6479,6.486-15.1338,17.2958-15.1338,19.4577-19.4578,19.4577-6.4859,0-6.4859,2.162l2.162,6.486c0,4.3239-6.4859,10.81-12.9719,15.1337-17.2957,8.6479-28.1056,19.4577-28.1056,25.9436h2.162c4.3239,0,8.6478-2.162,12.9718-4.3239l12.9718-6.4859c2.162,0,2.162,0,2.162,2.162,0,8.648-28.1056,23.7817-51.8873,25.9437a9.4693,9.4693,0,0,0-6.4859,2.162v4.3239c0,2.162-4.3239,4.3239-8.6478,6.4859s-8.6479,4.3239-8.6479,6.4859l4.324,4.3239c2.1619,2.1621,4.3239,2.1621,6.4859,2.1621s6.4859-2.1621,10.81-6.486,8.6479-6.4859,10.81-6.4859c0,2.1621-6.4859,12.9719-17.2957,23.7817-10.81,8.6479-15.1338,12.9718-15.1338,17.2957s2.1619,6.4859,6.4859,8.6479l6.4859,4.3239c4.324,0,10.81-4.3239,19.4578-15.1337,8.6478-8.6479,17.2957-17.2957,19.4577-17.2957s10.81-8.6479,41.0774-36.7535c8.6479-10.81,17.2957-15.1337,19.4577-15.1337v2.162c0,8.648-10.81,25.9437-17.2957,25.9437-4.324,0-12.9718,4.3239-17.2957,12.9718-4.324,6.4859-15.1338,17.2958-23.7817,23.7817l-25.9436,23.7816c-34.5914,34.5915-47.5633,47.5633-51.8872,47.5633s-6.4859,2.162-6.4859,4.3239v2.162a4.65,4.65,0,0,1-4.324,4.3239c-2.162,0-4.324-2.162-4.324-6.4859V2106.41c0-8.6479,0-12.9718-4.3239-12.9718a4.65,4.65,0,0,1-4.324-4.3239V2084.79c0-2.162,0-2.162-2.162-2.162h-2.1619l-4.324,4.3239v4.3239c0,8.6479-10.81,25.9436-19.4577,25.9436-6.4859,0-10.81,2.162-10.81,6.4859,0,2.1621-4.324,4.3239-8.6479,4.3239l-28.1056-4.3239-4.324,2.1621,2.162,6.4859-4.324,12.9718c0,2.162,2.1619,2.162,6.4859,2.162s8.6479-2.162,8.6479-6.4859,4.3239-6.4859,8.6478-6.4859c6.486,0,15.1338,4.3239,17.2958,8.6479a4.65,4.65,0,0,0,4.3239,4.3239l6.486-6.4859c4.3239-8.6479,17.2957-15.1337,23.7816-15.1337a2.1174,2.1174,0,0,1,2.162,2.162c0,10.81-25.9436,36.7535-38.9155,41.0774h-6.4859c-6.4859,0-8.6479-2.162-8.6479-4.3239s2.162-4.3239,6.486-6.4859l4.3239-2.162-4.3239-2.1621c-8.6479,0-38.9155,28.1056-38.9155,36.7535l4.324,2.162c8.6479,0,21.62-4.3239,30.2676-10.81l4.3239-4.3239-2.1619,10.81c-4.324,6.486-15.1338,15.1338-25.9436,17.2958l-12.9718,2.162q-12.9719,0-12.9719-6.4859c0-2.162,0-4.3239,4.324-6.4859l4.324-4.3239h-2.162c-4.324,0-12.9718,4.3239-21.62,10.81-6.4859,6.4859-19.4577,12.9718-28.1056,12.9718s-15.1338,0-15.1338,4.3239l10.81,10.81,8.6479,6.4859c4.324,0,6.4859-2.162,8.6479-6.4859,4.3239-6.4859,12.9718-8.6479,15.1337-8.6479s2.162,0,2.162,2.162l-4.324,2.162c-4.3239,4.3239-8.6478,15.1337-8.6478,23.7817-2.162,10.81-6.486,19.4577-10.81,19.4577s-8.6478,4.3239-10.81,10.81c-2.1619,8.648-21.62,28.1056-25.9436,28.1056l-2.1619-2.162c0-4.3239-4.324-6.486-8.6479-6.486-2.1619,0-2.1619,2.1621-2.1619,8.648v6.4859c4.3239,10.81,8.6478,17.2957,10.81,17.2957,4.3239,0,10.81,2.162,12.9718,4.3239l6.4859,2.162,4.324-2.162c2.1619-2.162,2.1619-4.3239,2.1619-6.4859q0-6.4859-12.9718-6.4859c-4.324,0-8.6479,0-8.6479-2.162l4.324-6.4859c8.6479-8.648,23.7817-19.4578,30.2676-19.4578l-2.162,6.4859,4.324,2.162q6.486,0,6.4859-6.4859c0-4.3239,0-10.81-2.1619-15.1337,0-6.4859,6.4859-12.9718,10.81-12.9718a4.65,4.65,0,0,1,4.3239,4.3239c2.162,4.3239,4.324,6.4859,8.6479,6.4859a4.65,4.65,0,0,0,4.324-4.3239v-2.162c0-10.81,17.2957-28.1056,28.1056-28.1056,4.324,0,10.81-4.3239,15.1338-10.81,2.1619-4.3239,10.81-8.6479,15.1338-8.6479,6.4859,0,12.9718-6.4859,15.1337-15.1337s10.81-15.1337,17.2958-15.1337,10.81,0,10.81,2.162l-6.4859,8.6479c-4.324,6.4859-6.486,17.2957-6.486,25.9437v4.3239c0,4.3239-2.1619,8.6479-4.3239,8.6479-4.324,0-17.2957,10.81-30.2676,23.7817-12.9718,10.81-23.7816,19.4577-30.2675,19.4577l-8.6479-2.162-2.162,2.162,4.324,10.81c0,2.162-2.1619,4.3239-8.6479,6.4859-4.3239,2.1621-6.4859,4.3239-6.4859,8.648v4.3239c0,4.3239-10.81,8.6479-21.62,8.6479l-12.9718-2.162c-6.4859,0-8.6479,4.3239-8.6479,12.9718-2.1619,8.648-8.6478,15.1337-17.2957,15.1337-4.324,0-8.6479-2.162-10.81-8.6479v-2.162c-2.162,0-2.162,2.162-4.324,6.4859s-8.6479,8.6479-12.9718,8.6479-10.81,4.3239-12.9719,8.648v2.162l2.162,2.162,8.6479-2.162h10.81c0,4.3239-10.81,12.9718-30.2676,28.1055-28.1056,19.4578-38.9154,25.9437-84.3168,54.0492-12.9718,6.486-19.4577,8.648-23.7816,8.648-2.162,0-2.162,0-2.162-2.162v-6.486c0-2.162,0-2.162-2.1619-2.162-4.324,0-6.4859,4.3239-6.4859,8.648v12.9718c0,12.9718-6.4859,19.4577-30.2676,23.7816-15.1338,2.1621-25.9436,6.486-28.1056,8.648-4.3239,8.6479-54.0492,28.1055-64.859,28.1055h-4.324c-4.3239,0-4.3239,2.162-4.3239,8.648v8.6479l-4.3239,2.162-21.62-4.3239c0,2.162,0,2.162,4.3239,4.3239l4.3239,4.3239-2.1619,2.162-12.9718-2.162c-12.9718-2.162-25.9437-4.3239-28.1056-6.4859-2.162,0-4.324,2.162-4.324,6.4859v6.4859c0,6.4859-4.3239,8.648-12.9718,8.648l-12.9718-2.1621,6.486-4.3239c4.3239-2.162,6.4859-2.162,6.4859-4.3239l-8.6479-2.162a40.73,40.73,0,0,0-17.2957,4.3239c-6.4859,2.162-8.6479,6.4859-8.6479,6.4859,0,2.1621,0,2.1621,2.162,2.1621a4.65,4.65,0,0,1,4.3239,4.3239v2.162c-2.162,2.162-4.3239,4.3239-6.4859,4.3239ZM1395.9641,765.9887c6.486,0,15.1338-4.3239,19.4578-8.6479l4.324-8.6478c-2.162,0-8.6479,2.1619-17.2958,8.6478l-10.81,6.4859c0,2.162,2.162,2.162,4.324,2.162Zm-144.8518,84.3168-2.162-2.162c0-2.162,6.4859-12.9718,19.4577-25.9437,28.1056-30.2675,49.7253-47.5632,54.0492-47.5632a2.1174,2.1174,0,0,1,2.162,2.1619c0,2.162-6.4859,10.81-17.2957,19.4577-8.6479,8.6479-23.7817,23.7817-32.43,34.5915-6.4859,10.81-19.4577,19.4578-23.7816,19.4578Zm121.07-54.0493c4.324,0,8.6479-4.3239,8.6479-6.4859q-3.243-6.4858-6.486-6.4859c-4.3239,0-8.6478,2.162-8.6478,6.4859v2.162C1365.6966,794.0943,1367.8585,796.2562,1372.1825,796.2562Zm-25.9436,17.2958c4.3239,0,8.6479-2.162,8.6479-6.4859v-2.162c0-2.162,0-4.324-2.162-4.324-4.324,0-8.6479,4.324-8.6479,6.486v2.1619C1344.0769,811.39,1344.0769,813.552,1346.2389,813.552Zm-248.6264,242.14c-2.162,0-4.3239-2.1619-4.3239-6.4859s6.4859-17.2957,17.2957-28.1056L1138.69,975.7c6.4859-10.81,15.1338-19.4577,17.2957-19.4577,4.3239,0,6.4859,0,6.4859-2.162v-2.1619c0-12.9718,23.7817-47.5633,32.4295-47.5633,4.324,0,8.6479-4.324,10.81-10.81,2.162-10.81,25.9436-34.5915,34.5915-36.7535l4.3239,2.162v2.162c0,6.4859-15.1338,23.7817-25.9436,28.1056-4.3239,2.162-8.6479,8.6479-8.6479,17.2957,0,6.4859-2.162,10.81-10.81,10.81h-15.1338l2.162,2.162c4.3239,2.1619,8.6478,6.4859,8.6478,8.6478,0,6.4859-17.2957,32.4295-38.9154,58.3732l-28.1056,41.0773c-10.81,17.2958-21.62,28.1057-30.2675,28.1057Zm192.4152-144.8518,23.7816-21.62,15.1338-19.4578-2.162-2.1619c-6.4859,0-21.62,15.1337-32.4295,32.43Zm-43.2394,15.1337,6.486-2.1619c4.3239-2.162,6.4859-6.486,6.4859-8.6479s0-2.162-2.162-2.162h-6.4859c-4.324,2.162-8.6479,6.4859-8.6479,8.6479a4.65,4.65,0,0,0,4.3239,4.3239Zm25.9437,6.486,2.1619-4.324-4.3239-4.3239h-2.162v4.3239l2.162,4.324Zm73.5069,19.4577q3.243,0,6.4859-6.4859c0-2.162,0-6.486-2.162-6.486,0,0-4.3239,4.324-4.3239,6.486l-2.162,4.3239Zm-157.8237,90.8027,6.4859-6.486a39.6464,39.6464,0,0,0,15.1338-21.62l2.162-8.6478-6.4859,6.4859-15.1338,19.4577Zm71.3449,17.2957,6.4859-6.4859c0-2.162,0-6.4859-4.3239-6.4859s-6.4859,4.3239-6.4859,6.4859C1257.5982,1057.8544,1257.5982,1060.0164,1259.76,1060.0164Zm-114.5843,4.324,4.324-2.162,4.3239-8.6479-2.162-4.3239-4.3239,2.1619-4.324,8.6479Zm21.62,2.1619c4.3239,0,6.4859-2.1619,8.6479-6.4859l-2.162-4.324-4.324,2.162-8.6478,6.4859c0,2.1619,2.162,2.1619,6.4859,2.1619Zm-79.9929,6.4859c-4.3239,0-6.4859-2.1619-6.4859-4.3239v-2.162c2.162-4.324,6.4859-6.4859,8.6479-6.4859q6.4859,0,6.4859,6.4859C1095.4505,1068.6643,1093.2885,1072.9882,1086.8026,1072.9882Zm47.5634,23.7817c10.81,0,19.4577-4.324,21.62-6.4859l-2.162-4.324a42.2089,42.2089,0,0,0-15.1338,2.1619q-19.4577,3.243-19.4577,6.486c0,2.1619,4.3239,2.1619,15.1338,2.1619Zm-69.183,23.7816c-6.4859,0-10.81-2.1619-10.81-6.4859,0-6.4859,10.81-17.2957,17.2958-17.2957a2.1174,2.1174,0,0,1,2.162,2.1619c2.1619,2.162,2.1619,4.324,2.1619,6.4859C1075.9928,1111.9037,1071.6689,1120.5515,1065.183,1120.5515Zm69.183-6.4859q3.243,0,6.4859-6.4859l2.162-4.324-2.162-2.1619c-2.162,0-4.3239,4.3239-6.4859,6.4859Zm-84.3168,21.62a4.65,4.65,0,0,1-4.3239-4.324c0-2.162,2.1619-4.3239,8.6478-4.3239,4.324,0,8.6479,0,8.6479,2.1619Zm127.5561,49.7252q6.486,0,6.486-6.4859v-2.1619q0-6.486-6.486-6.4859l-4.3239,2.1619c-2.162,2.162-4.3239,4.324-4.3239,6.4859v2.162C1171.12,1185.4105,1175.4434,1185.4105,1177.6053,1185.4105Zm-32.4295,45.4014,8.6479-8.6479,6.4859-15.1338v-2.1619h-2.162c-6.4859,0-15.1338,10.81-15.1338,19.4577v2.162c0,2.1619,0,4.324,2.162,4.324Zm-67.021-15.1338,2.162-6.4859-2.162-2.162a2.1174,2.1174,0,0,0-2.162-2.1619c-2.162,0-2.162,2.1619-2.162,6.4859Zm25.9436,90.8027,6.4859-12.9718,2.162-10.81c-2.162,0-4.3239,4.3239-8.6479,10.81l-2.1619,8.6478Zm-36.7534,30.2676c4.3239,0,6.4859-4.324,8.6478-10.81l2.162-8.6479-2.162-2.162c-2.1619,0-4.3239,2.162-8.6478,8.6479l-2.162,8.6479ZM928.979,1431.875c2.1619,0,6.4859-8.6479,10.81-17.2958l4.3239-17.2957-2.1619-4.324h-2.162c-2.162,0-2.162,2.162-4.3239,4.324-4.324,8.6479-8.6479,21.62-8.6479,30.2676Zm101.6125-4.3239,4.3239-10.81c0-4.3239,0-8.6478-4.3239-8.6478-2.162,0-4.3239,4.3239-4.3239,8.6478C1026.2676,1423.2272,1028.43,1427.5511,1030.5915,1427.5511Zm21.62,0c2.1619,0,4.3239-4.324,4.3239-10.81,0-4.3239-4.3239-8.6478-6.4859-8.6478-4.3239,0-6.4859,4.3239-6.4859,8.6478C1045.7253,1423.2272,1047.8872,1427.5511,1052.2112,1427.5511Zm-79.9929,4.3239,4.324-4.324v-2.162a4.65,4.65,0,0,0-4.324-4.3239c-2.1619,0-4.3239,2.1619-4.3239,6.4859A4.65,4.65,0,0,0,972.2183,1431.875Zm38.9155,30.2675c2.1619,0,4.3239-2.1619,8.6478-8.6478l4.324-6.486c-2.162,0-4.324,0-6.4859,2.162-4.324,2.1619-8.6479,4.324-8.6479,6.4859v2.162C1008.9718,1459.9805,1008.9718,1462.1425,1011.1338,1462.1425Zm-99.4506,17.2958,4.3239-8.6479v-6.4859c-2.1619,0-2.1619,0-2.1619,2.1619-2.162,2.162-4.324,4.324-4.324,6.4859v2.162C909.5212,1479.4383,909.5212,1479.4383,911.6832,1479.4383Zm67.021,49.7253c2.162,0,6.4859-4.324,8.6479-10.81,4.3239-4.324,4.3239-6.486,4.3239-6.486-2.1619,0-4.3239,2.162-6.4859,4.324l-8.6478,10.81C976.5423,1529.1636,976.5423,1529.1636,978.7042,1529.1636Zm-97.2885,30.2675,6.4859-6.4859c0-4.324,0-6.4859-4.324-6.4859s-6.4859,2.1619-6.4859,6.4859ZM2094.28,1594.0226c-2.162,0-2.162-2.162-2.162-4.3239v-6.4859c2.162,0,2.162,0,2.162,2.162l2.162,4.3239ZM963.5705,1613.48q6.4859,0,6.4859-6.4859c0-4.3239-2.162-6.4859-4.324-6.4859,0,0-4.3239,2.162-4.3239,6.4859v2.162C961.4085,1611.3185,961.4085,1613.48,963.5705,1613.48Zm1109.09,10.81q-6.4858,0-6.4859-6.486v-2.162h4.3239q6.4859,3.243,6.4859,6.4859C2076.9841,1624.29,2074.8221,1624.29,2072.66,1624.29ZM866.2819,1648.0718v-8.6479c0-4.3239-4.324-8.648-6.4859-8.648a4.65,4.65,0,0,0-4.324,4.3239l2.162,4.3239c4.3239,6.4859,6.4859,8.648,8.6479,8.648Zm88.6407,17.2957c2.1619,0,4.3239-4.3239,8.6478-17.2957l4.324-10.81-19.4577,15.1337,2.1619,8.6479Zm-90.8027-4.3239-4.3239-6.4859c-2.162-2.162-8.6479-6.4859-10.81-6.4859l-2.1619,2.162c0,2.162,0,2.162,4.3239,4.3239Zm1171.787,12.9719c2.162,0,8.6479-4.3239,12.9718-10.81l4.3239-8.648-2.162-2.162c-2.162,0-6.4859,2.162-12.9718,8.6479l-4.3239,10.81C2033.7449,1674.0155,2033.7449,1674.0155,2035.9069,1674.0155Zm77.8308,28.1055c-4.3239,0-4.3239-2.162-4.3239-4.3239q3.2431-6.4859,6.486-6.4859a9.4693,9.4693,0,0,1,2.162,6.4859v2.162ZM836.0143,1728.0647c4.324,0,6.4859-4.3239,8.6479-10.81l2.162-8.648-2.162-4.3239s-2.162,0-6.4859,4.3239-8.6479,10.81-8.6479,15.1337c0,2.1621,2.162,4.3239,6.4859,4.3239Zm1202.0545-12.9719c2.162,0,6.4859-2.162,6.4859-6.4859l2.162-2.162h-6.4859c-6.4859,2.162-8.648,4.3239-8.648,6.4859S2033.7449,1715.0928,2038.0688,1715.0928Zm-1117.7377,21.62,2.162-4.3239-2.162-4.3239h-2.162c-2.1619,0-2.1619,2.162-2.1619,4.3239l2.1619,4.3239Zm1089.6321,15.1338,4.3239-6.4859v-4.3239c0-2.162,0-2.162-2.162-2.162q-6.4858,0-6.4859,6.4859c0,2.162,2.162,6.4859,4.3239,6.4859Zm69.1829,0-4.3239-2.162v-2.162a2.1175,2.1175,0,0,1,2.1621-2.162c2.162,0,4.3239,0,4.3239,2.162l2.162,2.162c0,2.162-2.162,2.162-4.3239,2.162Zm-1208.54,4.3239-2.1619-2.162c0-2.162-2.162-2.162-4.324-2.162a2.1174,2.1174,0,0,0-2.1619,2.162v2.162Zm-51.8872,28.1056c6.4859,0,17.2957-4.3239,19.4577-10.81l4.3239-10.81c0-4.3239-4.3239-6.4859-10.81-6.4859q-6.486,0-6.4859,6.4859v4.3239c0,4.3239-2.162,8.648-4.324,8.648q-6.4859,0-6.4859,6.4859c0,2.162,2.162,2.162,4.324,2.162Zm84.3167-8.6478c2.162,0,8.6479-2.162,12.9718-6.4859l4.324-4.3239c0-2.1621-2.162-2.1621-6.4859-2.1621-6.4859,0-12.9718,4.3239-12.9718,6.486l-2.162,4.3239Zm1143.6814,10.81h-8.6479v-2.162a2.1174,2.1174,0,0,1,2.162-2.162c2.162,0,4.3239,0,4.3239,2.162Zm-1152.3292,6.4859,4.3239-2.162V1788.6h-8.6479v2.162Zm1141.5194,43.2394c-2.162,0-2.162-2.162-2.162-4.3239v-2.162c0-4.3239,4.3239-6.4859,8.6479-6.4859,2.162,0,2.162,0,2.162,2.162v4.3239C2042.3928,1831.8392,2040.2309,1836.1631,2035.9069,1836.1631ZM885.74,1840.487l2.162-4.3239-2.162-4.3239c0-2.162,0-2.162-2.162-2.162v6.4859Zm-38.9154,4.3239v-2.162l-2.162-4.3239c0-2.162,0-2.162-2.162-2.162v4.3239l2.162,4.3239h2.162Zm1057.2025,10.81c2.162,0,4.324,0,6.486-2.1621l4.3239-8.6479v-2.162h-4.3239c-4.324,0-8.6479,4.3239-8.6479,8.6479v2.162A2.1174,2.1174,0,0,0,1904.0267,1855.6209Zm116.7463-2.1621-4.3239-2.162v-2.162l4.3239-2.162,4.3239,2.162v2.162Zm-92.9646,21.62c2.1619-2.1621,4.324-4.3239,4.324-6.486v-4.3238c0-2.1621-2.162-4.3239-6.486-4.3239-2.1619,0-4.3239,4.3239-4.3239,8.6479s2.1619,6.4859,4.3239,6.4859h2.162Zm-75.6689-4.3239c2.1619,0,4.3239-2.1621,6.4859-4.3239,0-4.3239,0-6.4859-4.324-6.4859s-6.4859,2.162-6.4859,6.4859C1849.9775,1868.5927,1849.9775,1870.7546,1852.14,1870.7546Zm23.7816,10.81,8.6479-2.162c4.324-2.1621,6.4859-6.486,6.4859-8.648v-2.162h-2.1619c-2.162,0-4.324,0-6.486,2.162-4.3239,4.3239-6.4859,8.648-6.4859,10.81Zm-992.3435,2.162,6.4859-2.162c0-2.162-4.3239-4.3239-6.4859-6.4859l-4.3239-2.1621-2.162,4.3239c0,4.3239,4.324,6.486,6.4859,6.486ZM790.613,1909.67h-2.162c-2.162,0-2.162-2.1621-4.3239-4.3239,0-4.3239,2.1619-10.81,4.3239-15.1337s2.162-6.486,4.324-6.486c0,2.1621,2.1619,4.3239,2.1619,10.81v4.3239A16.514,16.514,0,0,1,790.613,1909.67Zm1137.1954,38.9153v-4.3239c0-4.3239,8.6479-12.9718,19.4577-21.62,12.9718-8.6479,17.2957-12.9718,19.4577-12.9718l-4.3239,12.9718c-6.4859,6.4859-15.1337,15.1337-19.4577,15.1337q-9.7288,0-12.9719,6.4859C1929.97,1946.4235,1929.97,1948.5854,1927.8084,1948.5854Zm-88.6407-23.7816,8.6479-4.3239v-2.162a4.65,4.65,0,0,0-4.324-4.3239c-2.162,0-6.4859,2.162-8.6479,6.4859C1834.8437,1922.6419,1834.8437,1924.8038,1839.1677,1924.8038Zm51.8872,12.9718a9.47,9.47,0,0,1-2.1619-6.4859c0-2.162,2.1619-6.4859,4.3239-6.4859a4.65,4.65,0,0,1,4.324,4.3239v2.162q-3.243,6.4858-6.4859,6.4859Zm-30.2676,6.4859,4.324-2.162-2.1619-2.162c0-2.162-2.162-2.162-4.324-2.162a2.1174,2.1174,0,0,0-2.162,2.162v2.162Zm-60.535,17.2958,6.4859-8.648c4.324-4.3239,4.324-6.4859,4.324-6.4859h-6.4859c-4.324,2.162-8.6479,6.4859-8.6479,8.6479,0,4.3239,2.1619,6.486,4.324,6.486Zm103.7744,0c-2.1619,0-6.4859-2.1621-8.6478-6.486l-2.162-4.3239,4.324,2.1621c2.1619,2.162,6.4859,4.3239,6.4859,6.4859v2.162Zm8.6479,4.3239,2.162-6.486c0-4.3239,2.1619-6.4859,4.3239-6.4859h2.162v2.162l-4.324,8.648Zm34.5915,2.162-4.3239-2.162v-2.1621l4.3239-2.162,4.3239,2.162v2.1621Zm-170.7955,17.2957c2.162,0,4.324,0,4.324-2.162l-2.1619-2.162-4.324-2.162-2.162,4.3239Zm166.4716,10.81a2.1174,2.1174,0,0,1-2.162-2.162c0-2.162,4.3239-4.3239,10.81-8.6479l8.6479-4.3239-2.162,6.4859A18.7336,18.7336,0,0,1,1942.9422,1996.1487Zm-231.3307,0,8.6479-2.162c4.324-2.162,8.6479-6.4859,8.6479-10.81l-4.324-2.162-6.4859,4.3239c-4.324,4.3239-6.4859,8.6479-6.4859,10.81Zm125.3942,2.162c-2.162,0-2.162-2.162-2.162-4.3239v-2.162c0-4.3239,4.324-6.4859,4.324-6.4859,2.162,0,4.324,2.162,4.324,6.4859,0,2.162-2.162,6.4859-6.4859,6.4859Zm21.62,0-4.324-6.4859q0-6.4859,6.4859-6.4859c4.324,0,4.324,2.162,4.324,6.4859Zm-97.2885,4.3239a4.65,4.65,0,0,0,4.3239-4.3239c0-4.3239-2.1619-6.4859-4.3239-6.4859l-4.324,8.648Zm43.2393,151.3379-8.6479-4.3239c-2.1619-2.1621-4.324-4.3239-4.324-8.648,0-8.6479,10.81-23.7816,25.9436-32.43,8.6479-2.162,12.9719-10.81,12.9719-17.2957v-6.4859h4.3239c4.324,0,15.1338-6.4859,23.7817-12.9718,45.4013-41.0774,79.9929-69.183,82.1548-69.183,0,6.486-43.2394,49.7254-47.5633,49.7254l-2.162,2.162,2.162,8.6479c0,8.6479-12.9719,21.62-21.62,21.62l-8.6479-2.162,4.324,8.6479c0,6.486-12.9719,17.2958-21.62,17.2958l-8.6479-2.162v4.3239c0,6.4859-12.9718,21.62-21.62,21.62-6.4859,0-12.9718,8.6479-12.9718,12.9718v2.162l4.3239,4.3239Zm-34.5915-90.8027,2.162-2.1621-2.162-6.4859-6.4859-8.6479c-2.1619,0-2.1619,4.3239-2.1619,8.6479C1763.4988,2058.8457,1765.6608,2063.17,1769.9847,2063.17Zm-15.1338,28.1055,10.81-2.162,15.1337-12.9718c0-4.3239-4.3239-6.486-10.81-6.486a26.2305,26.2305,0,0,0-10.81,2.1621Zm-38.9154,19.4578c4.324,0,8.6479-4.3239,8.6479-10.81v-4.3239c-2.162,0-4.324,0-6.4859,2.1621-4.324,2.162-8.6479,6.4859-8.6479,8.6479s2.1619,4.3239,6.4859,4.3239Zm-15.1338,0c2.162,0,2.162-2.1621,2.162-4.3239q0-6.4859-6.4859-6.486l-4.324,2.1621,2.1619,4.3239Zm43.2394,4.3239c-2.162,0-2.162-2.1621-4.324-4.3239,0-2.1621,0-4.3239,2.1619-4.3239a2.1174,2.1174,0,0,1,2.162,2.162l2.1619,2.162Zm-134.0421,71.3449c10.81,0,21.62-2.162,21.62-4.3239l-8.6478-6.4859-4.324-2.162c0-2.162,2.1619-2.162,6.4859-4.3239l21.62-17.2958,6.4859-8.6479c0-2.162-2.1619-2.162-6.4859-2.162s-12.9718,8.6479-19.4577,15.1337c-6.486,8.6479-15.1338,15.1337-19.4578,15.1337s-10.81,4.3239-12.9718,8.6479l-2.162,2.1621c0,2.162,6.486,4.3239,17.2958,4.3239Zm51.8873-21.62a9.469,9.469,0,0,0,6.4859-2.162v-2.1621l-2.1619-4.3239c-2.162,0-4.324,0-6.486,2.1621l-8.6478,4.3239C1651.0765,2164.7823,1655.4,2164.7823,1661.8863,2164.7823Zm88.6407,25.9436c-2.162,0-2.162-2.162-2.162-4.3239l2.162-8.6479c2.1619-6.4859,6.4859-10.81,10.81-10.81h4.324l-2.162,2.162a11.8893,11.8893,0,0,0-6.4859,10.81v2.162c0,4.3239-2.162,8.648-6.4859,8.648Zm-6.4859,30.2676c-2.162,0-6.486-4.3239-6.486-6.4859v-4.3239h4.324l8.6479,6.4859C1750.527,2218.8316,1748.365,2220.9935,1744.0411,2220.9935Zm-194.5772,10.81q3.243,0,6.4859-6.4859v-2.162l-4.3239-2.162-4.324,2.162v2.162a9.47,9.47,0,0,0,2.1619,6.4859Zm82.1548,12.9719c-2.1619,0-4.3239-2.1621-4.3239-6.486v-2.162q0-3.243,6.4859-6.4859h4.3239c2.162,0,2.162,2.162,2.162,6.4859C1638.1046,2240.4511,1635.9426,2244.7752,1631.6187,2244.7752Zm-58.3731,4.3238c4.3239,0,4.3239-4.3238,4.3239-10.81-2.1619-4.3239-4.3239-8.6479-6.4859-8.6479l-4.324,8.6479C1566.76,2244.7752,1568.9216,2249.099,1573.2456,2249.099Zm-38.9155,12.9719-6.4859-10.81h12.9718c10.81,0,15.1338-4.3239,15.1338-8.648l-4.3239-4.3239-4.324,4.3239-6.4859,4.3239c-2.162,0-2.162-2.162-4.324-6.4859l-4.324-6.4859c-2.1619,0-6.4859,2.162-10.81,6.4859l-6.4859,8.6479q0,3.2432,6.4859,6.486Zm62.6971-12.9719-2.1619-2.162c0-2.162-2.162-2.162-4.324-2.162a2.1174,2.1174,0,0,0-2.162,2.162v2.162Zm-90.8026,21.62,2.1619-4.3239-2.1619-4.3239c-2.162-4.3239-6.4859-6.4859-8.6479-6.4859l-2.1619,4.3239v4.3239c4.3239,4.3239,6.4859,6.4859,8.6478,6.4859Zm-6.4859,43.2394c2.1619,0,4.3239,0,4.3239-2.162,2.162-4.3239,8.6479-10.81,17.2958-12.9719,23.7816-12.9718,36.7534-21.62,36.7534-28.1055a4.65,4.65,0,0,0-4.3239-4.3239h-2.162c-8.6478,0-21.62,8.6479-32.4295,19.4577-8.6479,10.81-19.4577,17.2958-21.62,17.2958a4.65,4.65,0,0,0-4.324,4.3239l2.162,4.3239Zm-69.183,2.162,19.4577-12.9718c6.4859-4.3239,15.1338-8.648,21.62-8.648h6.4859c4.324,0,10.81-2.162,12.9719-6.4859l2.1619-4.3239a4.65,4.65,0,0,0-4.324-4.3239c-4.3239,0-6.4859,4.3239-6.4859,8.6479v2.1621h-2.1619l-2.162-4.3239c0-2.1621,2.162-6.4859,6.4859-8.648l6.486-6.4859c0-2.162,0-2.162-2.162-2.162-6.4859,0-56.2111,34.5915-58.3732,43.2394l-2.1619,4.3239Zm116.7463,4.3239c0-2.162,0-6.4859-2.162-8.6479h-2.1619l-2.162,4.3239c2.162,2.162,2.162,4.3239,4.324,4.3239h2.1619Zm-172.9576,79.9929q3.243,0,6.486-6.4859c2.1619-4.3239,10.81-12.9719,17.2957-17.2958,6.4859-2.162,19.4577-6.4859,25.9436-6.4859,8.6478,0,21.62-4.3239,28.1056-10.81,4.324-4.3239,12.9718-8.6479,17.2957-8.6479l10.81,2.162v-2.162l-8.6478-6.486c-4.324-4.3239-8.6479-6.4859-8.6479-8.6479s4.324-4.3239,8.6479-8.6479l8.6478-8.648-10.81,4.3239c-8.6478,4.3239-15.1338,10.81-15.1338,12.9719s-4.3239,4.3239-8.6478,4.3239-15.1338,6.4859-19.4578,12.9718c-6.4859,6.4859-17.2957,10.81-23.7816,10.81-4.324,0-8.6479,2.162-8.6479,6.4859,0,2.162-4.3239,6.4859-10.81,8.648-6.4859,0-10.81,6.4859-10.81,12.9718Zm164.31-54.0492a52.7885,52.7885,0,0,1-2.162-15.1338c-2.1619-8.6479-4.3239-10.81-8.6478-10.81l-4.324,2.162-8.6479,6.486,10.81,8.6479c6.4859,4.3239,10.81,8.6479,12.9718,8.6479Zm-222.6828,125.3941c4.324,0,6.4859,0,6.4859-4.3239s4.324-6.4859,10.81-6.4859c15.1338,0,58.3731-23.7817,64.8591-34.5915,2.1619-6.4859,6.4859-8.6479,8.6478-8.6479s6.4859,2.162,6.4859,8.6479c0,4.3239,6.486,10.81,12.9719,10.81l6.4859,2.1621c2.1619,0,2.1619-2.1621,2.1619-4.3239l-2.1619-10.81a11.8893,11.8893,0,0,1,6.4859-10.81c4.324-4.3239,6.4859-12.9718,6.4859-17.2957s2.162-8.6479,8.6479-8.6479c19.4577,0,51.8872-12.9719,51.8872-21.62q0-6.4858,6.486-6.4859h8.6478c4.324,0,6.4859-2.162,6.4859-4.3239-2.1619-4.3239-4.3239-6.4859-8.6478-6.4859l-10.81,2.162-6.486-4.3239-2.1619-4.3239c0-2.162,2.1619-2.162,4.324-2.162h4.3239v-2.162c-2.1619-2.162-4.3239-2.162-6.4859-2.162-6.4859,0-12.9718,4.3239-12.9718,10.81v4.3239c0,2.162-2.162,4.3239-8.6479,6.4859-6.4859,0-17.2957,6.4859-21.62,12.9718s-10.81,12.9719-15.1338,12.9719c-2.1619,0-6.4859,2.162-8.6478,6.4859s-17.2958,12.9718-32.4295,17.2957-25.9436,10.81-25.9436,15.1337-6.486,10.81-17.2958,15.1337-25.9436,12.9719-32.4295,19.4578c-6.4859,4.3239-15.1338,6.4859-19.4577,6.4859l-8.6479-2.162,2.162,4.3239a23.3549,23.3549,0,0,0,15.1338,6.4859Zm51.8873-114.5843c6.4859,0,12.9718-2.162,17.2957-8.648l2.162-6.4859-2.162-2.162c-4.3239,0-8.6478,4.3239-17.2957,8.6479l-6.4859,6.486C1361.3727,2357.1975,1363.5346,2357.1975,1367.8586,2357.1975Zm-17.2958,12.9718,4.324-2.162v-2.162l-4.324-2.162-4.3239,2.162v2.162Zm45.4013,25.9437c2.162,0,6.486,0,8.6479-2.162,8.6479-4.3239,15.1338-10.81,15.1338-12.9719s-2.162-2.162-4.324-2.162c-6.4859,2.162-19.4577,8.6479-21.62,15.1337v2.162h2.162Zm-101.6125-2.162,4.324-2.1621v-2.162h-8.6479v2.162Zm54.0492,19.4577c4.324,0,8.6479-4.3239,8.6479-6.4859,0-4.3239-4.3239-6.4859-6.4859-6.4859-4.3239,0-6.4859,2.162-8.6479,6.4859v2.162C1341.9149,2411.2468,1344.0769,2413.4087,1348.4008,2413.4087Zm17.2958,10.81c2.1619,0,4.3239-2.162,4.3239-6.4859a4.65,4.65,0,0,0-4.3239-4.3239l-4.324,4.3239v2.162A4.65,4.65,0,0,0,1365.6966,2424.2185ZM1292.19,2448l2.162-4.3239a16.5133,16.5133,0,0,1,10.81-4.3239l10.81,2.162,2.1619-2.162-2.1619-4.3239c-4.324-6.4859-12.9718-10.81-17.2958-10.81h-4.3239l-2.162,17.2957V2448Zm157.8236-10.81c4.324,0,6.486-4.3238,6.486-6.4859,0-4.3239-2.162-6.4859-4.324-6.4859,0,0-4.324,2.162-4.324,6.4859v2.1621c0,2.162,0,4.3238,2.162,4.3238Zm-90.8026,34.5915-2.162-4.3239h-6.4859v2.162c0,2.162,2.162,2.162,4.3239,2.162h4.324Zm-82.1548,17.2957c8.6479-2.162,15.1338-4.3239,15.1338-6.4859v-2.162q0-6.4858-6.4859-6.4859l-17.2958,2.162c-6.4859,2.162-8.6478,4.3239-8.6478,6.4859C1259.76,2486.9155,1266.2461,2489.0775,1277.0559,2489.0775Zm-47.5633,2.1621c4.3239,0,6.4859,0,6.4859-2.1621l-2.162-2.162-4.3239-2.162-4.324,2.162v2.162Zm103.7745,10.81a11.8894,11.8894,0,0,0,10.81-6.4859v-2.1621c0-2.162,0-2.162-2.162-2.162l-10.81,2.162-8.6479-6.4859c-2.162,0-2.162,2.162-2.162,4.3239,2.162,6.4859,6.4859,10.81,12.9718,10.81Zm-157.8237,34.5914,4.3239-2.162c4.3239-2.162,8.6479-4.3239,8.6479-6.4859a26.2317,26.2317,0,0,0-10.81-2.162c-4.3239,0-6.4859,2.162-6.4859,4.3239v2.162a4.65,4.65,0,0,0,4.3239,4.3239Zm56.2112,28.1056h-4.324c-2.162,0-4.3239,0-4.3239-2.162,0-4.3239,2.162-6.486,8.6479-6.486l8.6478,2.1621C1240.3024,2560.4225,1235.9785,2562.5844,1231.6546,2564.7464Z" transform="translate(-775.4792 -610.3271)"/></g></svg>