<svg id="Layer_1" data-name="Layer 1" xmlns="http://www.w3.org/2000/svg" xmlns:xlink="http://www.w3.org/1999/xlink" viewBox="0 0 2023.4682 2889.311"><defs><style>.cls-1{fill:url(#linear-gradient);}</style><linearGradient id="linear-gradient" x1="1285.9684" y1="2057.6438" x2="1287.3214" y2="2057.6438" gradientTransform="matrix(1495.5924, 0, 0, -2135.5569, -1922699.5252, 4395846.5576)" gradientUnits="userSpaceOnUse"><stop offset="0" stop-color="#fe8dc6"/><stop offset="1" stop-color="#fed1c7"/></linearGradient></defs><g id="SvgjsG1227"><path class="cls-1" d="M1159.1066,3075.7285l-69.7748-12.6864c-34.8874-6.3431-79.2895-19.03-101.49-31.7157s-44.4022-25.3726-53.9169-28.5443-22.2011-15.8578-25.3726-25.3726c-6.3432-12.6864-15.858-25.3726-25.3727-28.5443s-22.2011-12.6864-31.7158-19.03l-6.3431-9.5147,19.03,3.1716c0-3.1716-12.6864-15.8578-34.8874-31.7157-41.2306-28.5443-136.378-168.0937-142.7211-196.638,0-12.6864-6.3432-25.3726-9.5148-28.5443-6.3431-3.1716-15.8579-22.2009-22.201-44.4021-6.3432-25.3726-15.8579-50.7452-19.0295-60.26l-31.7158-180.78c-12.6863-95.1473-19.0295-142.7211-19.0295-174.4368l3.1716-38.059c6.3432-31.7158,15.8579-53.9169,22.2011-53.9169,19.0294-6.3431,34.8873-47.5738,34.8873-72.9464,0-6.3431,0-12.6864-3.1715-15.8579-3.1716-6.3431-12.6864-9.5147-15.8579-9.5147l-6.3432,3.1716,9.5147,19.03c0,3.1717,0,3.1717-6.3431,3.1717s-12.6863-6.3431-15.8579-12.6864c0-15.8579,9.5147-82.4612,15.8579-82.4612,3.1716,0,3.1716-6.3431,3.1716-9.5147v-25.3726c0-19.03,3.1715-44.4022,15.8579-82.4612l9.5147-50.7452c3.1716-19.03,12.6863-57.0886,22.2011-85.6326l19.0294-60.26c0-22.201,47.5737-149.0643,53.9169-155.4075l6.3431-3.1715c6.3432,0,9.5148,6.3432,9.5148,12.6863a24.2261,24.2261,0,0,1-6.3432,15.8579c-6.3431,9.5147-9.5147,22.201-9.5147,34.8873,3.1716,9.5148,3.1716,12.6863,6.3431,12.6863l9.5148-6.3432c6.3431-9.5147,12.6863-34.8873,12.6863-53.9169,0-12.6863-3.1716-25.3726-9.5147-25.3726s-12.6864-6.3432-12.6864-15.8578v-3.1716c0-15.8578,15.8579-63.4316,22.2011-69.7747,3.1716-3.1716,15.8579-28.5443,25.3726-57.0885s22.2011-60.26,28.5443-66.6032c3.1716-6.3432,6.3431-15.8578,6.3431-22.201,0-3.1716,0-9.5148,6.3432-12.6863,3.1716-3.1716,15.8579-22.2011,25.3726-41.2306,9.5148-22.2011,22.2011-38.0589,28.5442-38.0589l3.1716-3.1716v-6.3432c0-22.201,38.059-114.1768,57.0885-139.55,6.3431-6.3432,9.5147-9.5147,12.6863-9.5147s3.1715,3.1715,3.1715,6.3432c0,15.8578-9.5147,47.5737-25.3726,88.8042-12.6863,22.2011-15.8579,28.5443-50.7453,79.2895l-34.8874,79.29c-6.3431,28.5443-15.8579,53.9169-22.201,57.0885s-9.5147,9.5147-9.5147,12.6863q0,9.5148,9.5147,9.5147c3.1716,0,15.8579-15.8578,25.3726-38.0589s25.3727-44.4021,38.059-50.7452c9.5147-3.1716,12.6863-9.5148,12.6863-12.6863v-12.6863c0-22.2011,15.8579-76.118,28.5442-88.8043,6.3432-6.3432,34.8874-72.9463,34.8874-82.461v-19.03c0-6.3432,6.3432-12.6863,12.6863-12.6863s22.2011-19.0295,31.7158-41.2305l41.2305-69.7748L1146.42,766.8185c12.6863-19.0295,22.2011-34.8874,22.2011-38.059,0-15.8579,168.0937-212.4958,222.0106-260.0695,31.7158-28.5443,60.26-53.9169,63.4315-60.26,6.3432-6.3431,12.6863-12.6863,19.03-12.6863,3.1715,0,12.6863-9.5147,25.3726-19.0294,22.201-25.3727,57.0884-50.7453,88.8042-69.7748,9.5148-3.1716,15.8579-9.5147,15.8579-12.6863l-3.1716-3.1716c-6.3432,0-15.8578,3.1716-22.201,6.3432-9.5148,12.6863-57.0885,31.7158-72.9463,31.7158l-6.3432-3.1716c0-3.1716,15.8578-15.8579,38.0589-31.7158,22.2011-12.6863,41.2306-31.7158,41.2306-38.059v-3.1715c0-3.1716,3.1715-3.1716,6.3432-3.1716h15.8578a17.4415,17.4415,0,0,0,15.8579-9.5148c12.6863-31.7157,91.9758-53.9168,164.9221-53.9168,25.3726,0,47.5737,3.1716,69.7747,6.3431,22.2011,6.3432,57.0885,22.2011,76.118,38.059,41.2306,28.5442,107.8336,101.4906,107.8336,120.52v6.3432c0,12.6863,31.7159,66.6032,63.4317,107.8337,28.5443,34.8874,57.0884,120.52,57.0884,180.78v25.3726c0,34.8874-6.3432,47.5737-31.7158,76.1179-12.6863,19.0295-28.5443,28.5443-34.8874,28.5443l-3.1715-3.1716,3.1715-12.6863-9.5147,6.3432-12.6863,6.3432c-3.1716,0-19.03,9.5148-31.7159,25.3726-50.7452,53.9169-111.0053,101.4906-130.0347,101.4906-9.5147,0-12.6863,0-12.6863-6.3432l6.3432-12.6863c0-3.1716,0-3.1716-6.3432-3.1716h-19.03c-6.3432,0-12.6863-3.1715-12.6863-9.5147,0-12.6863,12.6863-34.8874,34.8874-72.9463,22.201-34.8874,41.23-72.9464,44.4021-82.4611,0-12.6863,9.5147-31.7158,15.8579-41.2305,6.3432-12.6863,12.6863-25.3726,12.6863-34.8874q0-9.5147-9.5148-9.5147l-15.8579,6.3431v-3.1716l9.5148-22.201q0-4.7574-9.5148-9.5148c-3.1715-3.1716-6.3432-6.3432-6.3432-9.5148l6.3432-12.6863c9.5148-15.8579,15.8579-28.5442,15.8579-38.0589,0-22.2011-15.8579-34.8874-47.5737-34.8874-28.5442,0-139.55,28.5442-196.6379,50.7453-41.2306,15.8579-158.579,88.8042-168.0938,104.6621,0,3.1716-15.8578,19.0295-31.7158,31.7159s-28.5442,34.8873-31.7158,44.4021c0,12.6863-6.3432,22.201-15.8579,22.201-19.03,0-60.26,41.2306-60.26,60.26l3.1716,6.3432-6.3431,3.1716h-3.1716c-9.5148,0-15.858,15.8578-22.2011,38.0589,0,9.5148-9.5148,15.8579-19.03,15.8579-12.6863,0-15.8579,6.3432-15.8579,19.0295v6.3432q0,9.5148-9.5147,9.5147c-6.3432,0-9.5148-3.1715-9.5148-6.3432V900.025l-6.3431,6.3432-6.3432,9.5147c0,3.1716,3.1716,3.1716,6.3432,6.3432,6.3431,3.1716,6.3431,6.3433,6.3431,9.5148a20.5,20.5,0,0,1-6.3431,15.8579,17.4416,17.4416,0,0,1-15.858,9.5147h-6.3431l-9.5148,3.1716v3.1715a6.8214,6.8214,0,0,0,6.3432,6.3432l3.1716,3.1716-6.3432,12.6863c-15.8579,15.8578-38.0589,28.5443-50.7452,28.5443h-3.1716c-6.3432,0-6.3432,3.1715-6.3432,6.3432s6.3432,12.6863,12.6863,19.0295l6.3432,6.3432v3.1715l-31.7159-6.3432,12.6863,9.5148c6.3432,6.3432,12.6864,12.6863,12.6864,15.8578h-3.1716c-15.858,0-60.26,53.9169-60.26,69.7748v9.5147c0,6.3432-6.3431,15.8579-12.6863,19.0295-19.0295,9.5148-38.059,44.4022-38.059,69.7748v6.3432q0,9.5148-9.5147,9.5148c-9.5148,0-12.6863,6.3432-12.6863,12.6863s0,12.6863-3.1716,12.6863c-6.3432,0-12.6863,19.03-19.03,41.2305s-12.6863,38.059-15.8579,38.059-12.6863,6.3432-22.2011,15.8578l-6.3431,6.3432,9.5147-3.1715c3.1716,0,3.1716,3.1715,3.1716,6.3432,0,6.3432-3.1716,15.8578-12.6863,22.201a17.4417,17.4417,0,0,0-9.5147,15.8579v12.6863c0,9.5148-3.1716,22.2011-12.6863,38.0589-9.5148,19.03-15.8579,41.2306-15.8579,44.4022a6.8215,6.8215,0,0,1-6.3432,6.3432l-15.8579-6.3432-3.1716,3.1715,3.1716,15.8579c0,9.5147-3.1716,19.0295-6.3432,28.5442-22.201,31.7158-25.3726,38.0591-25.3726,50.7453,0,28.5442-19.0295,88.8042-25.3726,88.8042-3.1716,0-6.3432,6.3431-6.3432,12.6864v3.1717c0,22.201-22.2011,79.29-31.7158,79.29-6.3431,0-22.2011,82.4611-22.2011,98.319v3.1717c0,15.8578-12.6863,57.0885-28.5442,107.8337-6.3431,19.03-9.5147,41.23-9.5147,50.7453v6.3431c0,3.1716,0,6.3431-3.1716,6.3431s-6.3431,9.5147-6.3431,15.8578c0,9.5148-3.1716,50.7453-12.6864,91.9759l-12.6863,88.8043-6.3431,31.7157c-6.3432,15.8579-9.5148,47.5738-9.5148,85.6326,0,107.8338,22.2011,269.5842,47.5737,310.8149,22.2011,31.7157,88.8043,63.4316,152.2359,69.7747,28.5442,3.1717,53.9168,9.5148,53.9168,15.8579,0,3.1717,0,3.1717,3.1716,3.1717l3.1716-3.1717c3.1716-9.5148,19.03-15.8579,28.5442-15.8579,3.1716,0,6.3432,0,6.3432,3.1717l3.1716,3.1716,12.6863-6.3431c6.3432-9.5147,15.8579-15.8578,25.3726-15.8578l9.5148,3.1716c0,3.1717-3.1716,3.1717-6.3432,6.3431s-6.3431,6.3431-6.3431,9.5148h9.5147c6.3432,0,12.6863-3.1717,12.6863-9.5148V2755.4c0-3.1717,3.1716-6.3431,9.5148-6.3431h9.5147c28.5443,0,98.319-22.201,98.319-34.8874,0-3.1716,6.3432-6.3431,15.8579-6.3431s19.03-6.3431,22.2011-9.5147c6.3431-12.6865,69.7747-50.7453,123.6916-69.7748,25.3726-9.5147,57.0885-31.7157,69.7748-47.5738s50.7452-44.4021,82.4611-63.4316,57.0884-41.2305,57.0884-47.5738c0-3.1716,0-6.3431,3.1715-6.3431h3.1716c9.5147,0,98.319-66.6031,133.2064-101.4905,6.3432-3.1716,34.8873-28.5442,63.4316-53.9168s57.0885-50.7453,60.26-57.0886c0-6.3431,12.6863-12.6864,22.2011-12.6864l12.6863-3.1716v-3.1717c0-6.3431,9.5147-12.6864,22.201-22.201s25.3727-15.8578,25.3727-22.2009S1967.8593,2175,1977.3739,2175c6.3432-3.1717,28.5443-25.3726,50.7452-44.4022,19.03-22.2009,41.2306-41.23,47.5737-41.23,9.5148,0,12.6863-6.3431,12.6863-12.6864V2073.51c0-9.5147,9.5148-19.03,22.2011-25.3726,12.6863-9.5148,22.2011-22.201,22.2011-28.5443,0-3.1716,3.1715-9.5147,12.6863-9.5147,6.3432,0,41.2305-31.7157,72.9463-69.7748,38.0589-38.059,60.26-60.26,66.6032-60.26l9.5146,3.1717q4.7575,0,9.5148-19.0295c6.3431-15.8579,15.8578-25.3726,22.2009-25.3726h3.1717l3.1716-6.3431v-6.3431a6.8213,6.8213,0,0,1,6.3431-6.3431h3.1717q9.5147,0,9.5147,9.5147l3.1717,12.6864,9.5148-22.2009c0-6.3431-3.1717-9.5148-6.3432-12.6865s-6.3431-6.3431-6.3431-9.5147l6.3431-9.5148,53.9169-57.0885c25.3726-34.8874,47.5738-47.5738,63.4317-47.5738s31.7157-12.6864,50.7452-38.059,34.8874-38.059,47.5738-38.059c3.1716,0,6.3431,3.1716,6.3431,12.6864v3.1716c-3.1717,9.5148-6.3431,15.8579-9.5148,15.8579a6.8213,6.8213,0,0,0-6.3431,6.3431l3.1717,22.201c0,6.3431-3.1717,9.5147-6.3431,9.5147-6.3431,0-9.5148,3.1717-9.5148,6.3431,0,6.3431-3.1716,6.3431-9.5147,6.3431l-6.3431-3.1716-6.3431,6.3431v3.1716c0,3.1717,3.1716,6.3431,9.5147,6.3431,9.5148,0,15.8579,3.1717,15.8579,6.3431,0,6.3431-3.1717,9.5148-6.3431,9.5148s-9.5148,9.5147-9.5148,19.0295v6.3431c0,3.1717,0,6.3431,3.1717,6.3431,6.3431,0,19.03-12.6864,34.8873-38.059,9.5148-15.8579,25.3727-28.5443,28.5443-28.5443l3.1717,3.1717-12.6864,19.0295c-12.6865,9.5147-19.03,19.03-19.03,25.3726l6.3431,19.03-3.1716,6.3431c-3.1717,0-12.6864,0-22.201,3.1717-9.5147,0-22.2009,0-28.5442-6.3431l-9.5148-3.1717c-3.1717,0-9.5148,3.1717-15.8579,9.5148l-9.5147,9.5147,6.3431,3.1717c6.3431,0,6.3431,0,6.3431,3.1716l-6.3431,19.0295c0,3.1717,3.1716,3.1717,9.5147,3.1717l9.5148,3.1716-3.1717,3.1717H2510.2c-6.3431,0-12.6864-3.1717-19.03-6.3431l-12.6864-6.3431-12.6864,6.3431c0,3.1716,3.1717,9.5147,12.6864,12.6864,6.3431,6.3431,9.5148,9.5148,9.5148,12.6864l-3.1717,6.3431h-3.1716c-3.1717,0-6.3431,0-6.3431-3.1716l-3.1717-3.1717c-3.1716,0-6.3431,0-9.5147,6.3431l-12.6864,15.8579c0,3.1716,3.1716,3.1716,6.3431,3.1716h6.3431c3.1716,0,9.5147,3.1717,15.8578,9.5148v9.5147l-9.5147-3.1716c-3.1717,0-6.3431,6.3431-9.5148,12.6864,0,9.5147-9.5147,15.8579-15.8578,15.8579-9.5148,0-12.6865-3.1717-12.6865-9.5148q0-4.7575,9.5148-9.5148l3.1717-3.1716h-9.5148c-9.5148,3.1716-15.8579,6.3431-15.8579,15.8578v12.6865H2411.88c-6.3431,0-6.3431,3.1716-9.5147,6.3431v3.1716s3.1716,3.1717,9.5147,3.1717,15.8579,6.3431,19.03,12.6864v6.3431a6.8213,6.8213,0,0,1-6.3431,6.3431c-9.5147,0-12.6864-3.1717-15.8578-9.5148,0-3.1716-3.1717-6.3431-9.5148-6.3431-3.1716,0-3.1716,3.1717-3.1716,6.3431l6.3431,25.3726-3.1717-3.1716q-4.7574-9.5147-19.03-9.5148c-9.5147,0-19.03,6.3431-28.5443,15.8579s-12.6864,12.6864-12.6864,15.8578,6.3431,3.1717,19.03,3.1717,25.3727,3.1717,25.3727,9.5148c0,3.1716-3.1717,6.3431-9.5148,6.3431s-19.03,9.5147-31.7157,22.2009c-9.5148,9.5148-12.6864,12.6864-15.8579,12.6864l12.6864-12.6864,6.3431-19.0295c0-3.1716,0-3.1716-3.1716-3.1716-12.6864,0-22.201,19.03-25.3726,41.23,0,6.3431-6.3431,19.03-15.8579,25.3726s-19.03,12.6865-22.2011,19.03h-3.1715l-3.1716-6.3431c0-9.5148-3.1715-15.8579-9.5147-15.8579s-12.6863,9.5148-22.2011,25.3726-22.201,28.5443-28.5442,28.5443-9.5148,0-9.5148,3.1716l3.1716,9.5148c0,6.3431-9.5148,15.8578-19.03,22.201-25.3726,12.6864-41.2305,28.5442-41.2305,38.059h3.1715c6.3432,0,12.6863-3.1717,19.0295-6.3431l19.03-9.5148c3.1716,0,3.1716,0,3.1716,3.1717,0,12.6864-41.2306,34.8873-76.118,38.059-6.3432,0-9.5147,3.1716-9.5147,3.1716v6.3432c0,3.1716-6.3432,6.3431-12.6863,9.5147s-12.6863,6.3431-12.6863,9.5148l6.3432,6.3431c3.1715,3.1716,6.3432,3.1716,9.5147,3.1716s9.5148-3.1716,15.8579-9.5147,12.6863-9.5148,15.8579-9.5148c0,3.1717-9.5148,19.0295-25.3727,34.8874-15.8578,12.6864-22.201,19.03-22.201,25.3726s3.1715,9.5147,9.5147,12.6864l9.5148,6.3431c6.3432,0,15.8578-6.3431,28.5443-22.201,12.6863-12.6864,25.3726-25.3726,28.5442-25.3726s15.8579-12.6864,60.26-53.9169c12.6863-15.8578,25.3726-22.2009,28.5443-22.2009v3.1716c0,12.6864-15.8579,38.0591-25.3726,38.0591-6.3432,0-19.03,6.3431-25.3727,19.03-6.3432,9.5147-22.201,25.3726-34.8873,34.8873l-38.0589,34.8874c-50.7453,50.7452-69.7748,69.7748-76.118,69.7748s-9.5148,3.1716-9.5148,6.3431v3.1716a6.8212,6.8212,0,0,1-6.3432,6.3431c-3.1716,0-6.3432-3.1716-6.3432-9.5147v-6.3431c0-12.6865,0-19.03-6.3432-19.03a6.8215,6.8215,0,0,1-6.3432-6.3431v-6.3431c0-3.1716,0-3.1716-3.1715-3.1716h-3.1716l-6.3432,6.3431v6.3431c0,12.6864-15.8578,38.059-28.5442,38.059-9.5148,0-15.8579,3.1717-15.8579,9.5148,0,3.1716-6.3432,6.3431-12.6863,6.3431l-41.2306-6.3431-6.3432,3.1716,3.1716,9.5148-6.3432,19.03c0,3.1716,3.1715,3.1716,9.5147,3.1716s12.6863-3.1716,12.6863-9.5147,6.3432-9.5148,12.6863-9.5148c9.5148,0,22.2011,6.3431,25.3726,12.6864a6.8212,6.8212,0,0,0,6.3432,6.3431l9.5148-9.5147c6.3432-12.6864,25.3726-22.201,34.8874-22.201a3.1062,3.1062,0,0,1,3.1715,3.1717c0,15.8578-38.0589,53.9169-57.0884,60.26h-9.5148c-9.5147,0-12.6863-3.1717-12.6863-6.3431s3.1716-6.3431,9.5148-9.5148l6.3432-3.1716-6.3432-3.1717c-12.6863,0-57.0885,41.2305-57.0885,53.9169l6.3433,3.1716c12.6863,0,31.7158-6.3431,44.4021-15.8578l6.3432-6.3431-3.1716,15.8578c-6.3432,9.5148-22.201,22.201-38.0589,25.3726l-19.03,3.1717q-19.0294,0-19.0295-9.5148c0-3.1716,0-6.3431,6.3432-9.5147l6.3432-6.3431h-3.1716c-6.3432,0-19.0295,6.3431-31.7158,15.8578-9.5147,9.5148-28.5442,19.03-41.2306,19.03s-22.201,0-22.201,6.3431l15.8578,15.8578,12.6863,9.5148c6.3433,0,9.5148-3.1717,12.6864-9.5148,6.3432-9.5147,19.0295-12.6864,22.201-12.6864s3.1716,0,3.1716,3.1717l-6.3432,3.1716c-6.3432,6.3431-12.6863,22.201-12.6863,34.8874-3.1716,15.8578-9.5148,28.5443-15.8579,28.5443s-12.6863,6.3431-15.8579,15.8578c-3.1715,12.6864-31.7158,41.2305-38.0589,41.2305l-3.1715-3.1717c0-6.3431-6.3432-9.5147-12.6863-9.5147-3.1716,0-3.1716,3.1716-3.1716,12.6864v9.5147c6.3432,15.8579,12.6863,25.3727,15.8579,25.3727,6.3432,0,15.8578,3.1716,19.03,6.3431l9.5147,3.1716,6.3432-3.1716c3.1716-3.1717,3.1716-6.3431,3.1716-9.5148q0-9.5147-19.0295-9.5147c-6.3432,0-12.6863,0-12.6863-3.1717l6.3432-9.5148c12.6863-12.6864,34.8873-28.5442,44.4021-28.5442l-3.1716,9.5147,6.3433,3.1717q9.5148,0,9.5147-9.5148c0-6.3431,0-15.8578-3.1715-22.2009,0-9.5148,9.5147-19.0295,15.8578-19.0295a6.8214,6.8214,0,0,1,6.3432,6.3431c3.1716,6.3431,6.3432,9.5147,12.6863,9.5147a6.8214,6.8214,0,0,0,6.3432-6.3431v-3.1716c0-15.8579,25.3726-41.2305,41.2306-41.2305,6.3432,0,15.8579-6.3431,22.2011-15.8579,3.1715-6.3431,15.8578-12.6864,22.201-12.6864,9.5148,0,19.03-9.5147,22.2011-22.2009s15.8579-22.201,25.3726-22.201,15.8579,0,15.8579,3.1716l-9.5148,12.6864c-6.3432,9.5148-9.5147,25.3727-9.5147,38.0591v6.3431c0,6.3431-3.1716,12.6864-6.3432,12.6864-6.3432,0-25.3727,15.8578-44.4022,34.8874-19.0295,15.8578-34.8873,28.5442-44.4021,28.5442l-12.6863-3.1716-3.1716,3.1716,6.3432,15.8579c0,3.1716-3.1715,6.3431-12.6863,9.5147-6.3432,3.1717-9.5147,6.3431-9.5147,12.6864v6.3432c0,6.3431-15.8579,12.6864-31.7158,12.6864l-19.03-3.1717c-9.5148,0-12.6864,6.3431-12.6864,19.03-3.1715,12.6864-12.6863,22.201-25.3726,22.201-6.3432,0-12.6863-3.1717-15.8578-12.6864v-3.1717c-3.1716,0-3.1716,3.1717-6.3432,9.5148s-12.6863,12.6864-19.0295,12.6864-15.8579,6.3431-19.03,12.6864v3.1716l3.1716,3.1717,12.6863-3.1717h15.8579c0,6.3432-15.8579,19.03-44.4022,41.2305-41.23,28.5443-57.0884,38.059-123.6916,79.2895-19.03,9.5148-28.5443,12.6864-34.8874,12.6864-3.1715,0-3.1715,0-3.1715-3.1716v-9.5148c0-3.1716,0-3.1716-3.1716-3.1716-6.3432,0-9.5147,6.3431-9.5147,12.6864v19.03c0,19.03-9.5148,28.5443-44.4022,34.8874-22.201,3.1716-38.0589,9.5147-41.23,12.6864-6.3431,12.6864-79.29,41.23-95.1474,41.23h-6.3431c-6.3432,0-6.3432,3.1717-6.3432,12.6865v12.6864l-6.3431,3.1716-31.7159-6.3431c0,3.1717,0,3.1717,6.3432,6.3431l6.3431,6.3431-3.1716,3.1717-19.0294-3.1717c-19.03-3.1716-38.059-6.3431-41.2305-9.5147-3.1717,0-6.3432,3.1716-6.3432,9.5147v9.5148c0,9.5147-6.3432,12.6864-19.0295,12.6864l-19.0294-3.1717,9.5147-6.3431c6.3432-3.1716,9.5148-3.1716,9.5148-6.3431l-12.6863-3.1716c-9.5148,0-19.0295,3.1716-25.3726,6.3431-9.5148,3.1716-12.6863,9.5147-12.6863,9.5147,0,3.1717,0,3.1717,3.1716,3.1717a6.8213,6.8213,0,0,1,6.3431,6.3431v3.1716c-3.1716,3.1717-6.3431,6.3431-9.5147,6.3431ZM1495.294,414.7729c9.5148,0,22.2011-6.3431,28.5443-12.6863l6.3432-12.6863c-3.1716,0-12.6863,3.1716-25.3726,12.6863l-15.8579,9.5148c0,3.1716,3.1716,3.1716,6.3432,3.1716ZM1282.7982,538.4646l-3.1716-3.1716c0-3.1716,9.5147-19.0295,28.5442-38.059,41.23-44.4021,72.9463-69.7748,79.2895-69.7748a3.1062,3.1062,0,0,1,3.1716,3.1716c0,3.1716-9.5148,15.8579-25.3726,28.5443-12.6863,12.6863-34.8874,34.8873-47.5737,50.7452-9.5147,15.8579-28.5442,28.5443-34.8874,28.5443Zm177.6084-79.29c6.3432,0,12.6864-6.3432,12.6864-9.5148q-4.7574-9.5148-9.5148-9.5148c-6.3432,0-12.6863,3.1716-12.6863,9.5148v3.1716C1450.8919,456.0035,1454.0634,459.1751,1460.4066,459.1751Zm-38.0589,25.3726c6.3432,0,12.6863-3.1716,12.6863-9.5148v-3.1716c0-3.1716,0-6.3431-3.1716-6.3431-6.3431,0-12.6863,6.3431-12.6863,9.5147v3.1716C1419.1761,481.3761,1419.1761,484.5477,1422.3477,484.5477ZM1057.616,839.7646c-3.1716,0-6.3432-3.1716-6.3432-9.5148s9.5148-25.3726,25.3727-41.2305l41.23-66.6032c9.5147-15.8579,22.201-28.5442,25.3726-28.5442,6.3432,0,9.5148,0,9.5148-3.1717v-3.1716c0-19.0294,34.8873-69.7747,47.5736-69.7747,6.3432,0,12.6863-6.3431,15.8579-15.8579,3.1716-15.8579,38.059-50.7453,50.7453-53.9169l6.3432,3.1716v3.1716c0,9.5148-22.2011,34.8874-38.059,41.2305-6.3431,3.1716-12.6863,12.6863-12.6863,25.3727,0,9.5147-3.1716,15.8579-15.8579,15.8579h-22.2011l3.1716,3.1716c6.3432,3.1716,12.6863,9.5147,12.6863,12.6863,0,9.5147-25.3726,47.5737-57.0884,85.6326l-41.23,60.26c-15.8579,25.3726-31.7158,41.2306-44.4022,41.2306Zm282.2706-212.4958,34.8874-31.7159,22.2011-28.5442-3.1716-3.1716c-9.5148,0-31.7159,22.2011-47.5737,47.5737ZM1276.455,649.47l9.5148-3.1716c6.3431-3.1716,9.5147-9.5147,9.5147-12.6863s0-3.1716-3.1716-3.1716h-9.5147c-6.3432,3.1716-12.6863,9.5148-12.6863,12.6863a6.8214,6.8214,0,0,0,6.3431,6.3432Zm38.059,9.5148,3.1716-6.3432-6.3431-6.3431h-3.1716v6.3431l3.1716,6.3432h3.1715Zm107.8337,28.5442q4.7574,0,9.5148-9.5148c0-3.1716,0-9.5147-3.1716-9.5147,0,0-6.3432,6.3431-6.3432,9.5147l-3.1716,6.3432ZM1190.8224,820.7352l9.5147-9.5148c9.5148-6.3432,19.03-19.0295,22.2011-31.7158l3.1716-12.6863-9.5148,9.5148-22.201,28.5442Zm104.6621,25.3726,9.5147-9.5148c0-3.1715,0-9.5147-6.3431-9.5147s-9.5148,6.3432-9.5148,9.5147C1292.3129,842.9362,1292.3129,846.1078,1295.4845,846.1078Zm-168.0937,6.3432,6.3431-3.1716,6.3432-12.6863-3.1716-6.3432-6.3432,3.1716-6.3431,12.6863Zm31.7158,3.1716c6.3431,0,9.5147-3.1716,12.6863-9.5148l-3.1716-6.3432-6.3432,3.1715-12.6863,9.5148c0,3.1716,3.1716,3.1716,9.5148,3.1716Zm-117.3485,9.5147c-6.3432,0-9.5148-3.1715-9.5148-6.3432v-3.1715c3.1716-6.3433,9.5148-9.5148,12.6863-9.5148q9.5148,0,9.5148,9.5148C1054.4444,858.7941,1051.2728,865.1373,1041.7581,865.1373Zm69.7748,34.8874c15.8579,0,28.5442-6.3432,31.7158-9.5148l-3.1716-6.3432c-6.3432,0-12.6863,0-22.2011,3.1716q-28.5441,4.7572-28.5442,9.5147c0,3.1716,6.3432,3.1716,22.2011,3.1716Zm-101.4906,34.8874c-9.5147,0-15.8579-3.1716-15.8579-9.5148,0-9.5148,15.8579-25.3726,25.3726-25.3726a3.1062,3.1062,0,0,1,3.1716,3.1715c3.1716,3.1716,3.1716,6.3432,3.1716,9.5148C1025.9,922.2257,1019.5571,934.9121,1010.0423,934.9121Zm101.4906-9.5148q4.7574,0,9.5147-9.5148l3.1716-6.3432-3.1716-3.1715c-3.1716,0-6.3431,6.3432-9.5147,9.5147ZM987.8413,957.1131a6.8213,6.8213,0,0,1-6.3432-6.3432c0-3.1716,3.1716-6.3432,12.6863-6.3432,6.3432,0,12.6863,0,12.6863,3.1716Zm187.1232,72.9463q9.5147,0,9.5147-9.5147v-3.1716q0-9.5148-9.5147-9.5148l-6.3432,3.1716c-3.1716,3.1716-6.3431,6.3432-6.3431,9.5148v3.1715C1165.45,1030.0594,1171.7929,1030.0594,1174.9645,1030.0594Zm-47.5737,66.6032,12.6863-12.6863,9.5148-22.2011v-3.1715H1146.42c-9.5148,0-22.2011,15.8578-22.2011,28.5442v3.1716c0,3.1716,0,6.3432,3.1716,6.3432Zm-98.319-22.2011,3.1716-9.5147-3.1716-3.1716a3.1062,3.1062,0,0,0-3.1716-3.1715c-3.1716,0-3.1716,3.1715-3.1716,9.5147Zm38.059,133.2064,9.5147-19.0295,3.1716-15.8579c-3.1716,0-6.3431,6.3433-12.6863,15.8579l-3.1716,12.6863Zm-53.9169,44.4021c6.3431,0,9.5147-6.3432,12.6863-15.8578l3.1716-12.6863-3.1716-3.1716c-3.1716,0-6.3431,3.1716-12.6863,12.6863l-3.1716,12.6863ZM810.2328,1391.62c3.1715,0,9.5147-12.6863,15.8579-25.3726l6.3431-25.3726-3.1715-6.3432h-3.1716c-3.1716,0-3.1716,3.1716-6.3432,6.3432-6.3431,12.6863-12.6863,31.7158-12.6863,44.4021Zm149.0642-6.3431,6.3432-15.8578c0-6.3432,0-12.6863-6.3432-12.6863-3.1715,0-6.3431,6.3432-6.3431,12.6863C952.9539,1378.9333,956.1255,1385.2764,959.297,1385.2764Zm31.7158,0c3.1716,0,6.3432-6.3432,6.3432-15.8578,0-6.3432-6.3432-12.6863-9.5147-12.6863-6.3432,0-9.5148,6.3432-9.5148,12.6863C981.4981,1378.9333,984.67,1385.2764,991.0128,1385.2764ZM873.6644,1391.62l6.3431-6.3432v-3.1715a6.8214,6.8214,0,0,0-6.3431-6.3432c-3.1716,0-6.3432,3.1715-6.3432,9.5147A6.8214,6.8214,0,0,0,873.6644,1391.62Zm57.0884,44.4022c3.1716,0,6.3432-3.1716,12.6863-12.6863l6.3432-9.5148c-3.1716,0-6.3432,0-9.5148,3.1716-6.3431,3.1715-12.6863,6.3432-12.6863,9.5147v3.1716C927.5812,1432.85,927.5812,1436.0217,930.7528,1436.0217ZM784.86,1461.3943l6.3432-12.6863v-9.5148c-3.1716,0-3.1716,0-3.1716,3.1716-3.1716,3.1715-6.3432,6.3432-6.3432,9.5147v3.1716C781.6885,1461.3943,781.6885,1461.3943,784.86,1461.3943Zm98.319,72.9464c3.1716,0,9.5147-6.3432,12.6863-15.8579,6.3432-6.3432,6.3432-9.5147,6.3432-9.5147-3.1716,0-6.3432,3.1715-9.5148,6.3432l-12.6863,15.8578C880.0075,1534.3407,880.0075,1534.3407,883.1791,1534.3407ZM740.458,1578.7428l9.5148-9.5148c0-6.3432,0-9.5147-6.3432-9.5147s-9.5147,3.1715-9.5147,9.5147Zm1779.2564,50.7452c-3.1717,0-3.1717-3.1716-3.1717-6.3431V1613.63c3.1717,0,3.1717,0,3.1717,3.1716l3.1717,6.3431ZM860.978,1658.0323q9.5148,0,9.5148-9.5148c0-6.3431-3.1716-9.5147-6.3432-9.5147,0,0-6.3431,3.1716-6.3431,9.5147v3.1717C857.8065,1654.8608,857.8065,1658.0323,860.978,1658.0323ZM2487.9985,1673.89q-9.5147,0-9.5148-9.5148v-3.1716h6.3431q9.5147,4.7574,9.5148,9.5147C2494.3416,1673.89,2491.17,1673.89,2487.9985,1673.89ZM718.2569,1708.7775v-12.6864c0-6.3431-6.3431-12.6864-9.5147-12.6864a6.8215,6.8215,0,0,0-6.3432,6.3431l3.1716,6.3431c6.3432,9.5148,9.5148,12.6864,12.6863,12.6864ZM848.2917,1734.15c3.1716,0,6.3432-6.3431,12.6863-25.3726l6.3432-15.8578-28.5442,22.2009,3.1715,12.6864Zm-133.2063-6.3431-6.3432-9.5147c-3.1716-3.1717-12.6863-9.5148-15.8579-9.5148l-3.1716,3.1717c0,3.1716,0,3.1716,6.3432,6.3431Zm1718.9964,19.03c3.1717,0,12.6864-6.3431,19.03-15.8579l6.3431-12.6864-3.1716-3.1717c-3.1717,0-9.5148,3.1717-19.03,12.6864l-6.3432,15.8579C2430.91,1746.8366,2430.91,1746.8366,2434.0818,1746.8366Zm114.1769,41.23c-6.3431,0-6.3431-3.1716-6.3431-6.3431q4.7574-9.5147,9.5147-9.5147s3.1717,3.1716,3.1717,9.5147v3.1717ZM673.8548,1826.1261c6.3432,0,9.5148-6.3431,12.6864-15.8579l3.1715-12.6864-3.1715-6.3431s-3.1716,0-9.5148,6.3431S664.34,1813.44,664.34,1819.7827c0,3.1717,3.1716,6.3432,9.5147,6.3432Zm1763.3985-19.03c3.1716,0,9.5147-3.1716,9.5147-9.5147l3.1717-3.1717h-9.5148c-9.5148,3.1717-12.6864,6.3431-12.6864,9.5148S2430.91,1807.0965,2437.2533,1807.0965ZM797.5464,1838.8123l3.1716-6.3431-3.1716-6.3431h-3.1715c-3.1716,0-3.1716,3.1716-3.1716,6.3431l3.1716,6.3431Zm1598.4764,22.2011,6.3431-9.5147v-6.3431c0-3.1717,0-3.1717-3.1717-3.1717q-9.5147,0-9.5147,9.5148c0,3.1716,3.1716,9.5147,6.3431,9.5147Zm101.49,0-6.3431-3.1716V1854.67a3.1063,3.1063,0,0,1,3.1717-3.1716c3.1716,0,6.3431,0,6.3431,3.1716l3.1716,3.1717c0,3.1716-3.1716,3.1716-6.3431,3.1716ZM724.6,1867.3565l-3.1716-3.1716c0-3.1717-3.1715-3.1717-6.3431-3.1717a3.1063,3.1063,0,0,0-3.1716,3.1717v3.1716Zm-76.1179,41.23c9.5147,0,25.3726-6.3431,28.5442-15.8579l6.3432-15.8578c0-6.3431-6.3432-9.5148-15.8579-9.5148q-9.5148,0-9.5148,9.5148v6.3431c0,6.3431-3.1716,12.6864-6.3431,12.6864q-9.5148,0-9.5148,9.5148c0,3.1716,3.1716,3.1716,6.3432,3.1716Zm123.6916-12.6862c3.1716,0,12.6863-3.1717,19.0295-9.5148l6.3431-6.3431c0-3.1716-3.1715-3.1716-9.5147-3.1716-9.5148,0-19.0295,6.3431-19.0295,9.5147l-3.1716,6.3431ZM2449.94,1911.7587h-12.6864v-3.1717a3.1062,3.1062,0,0,1,3.1716-3.1716c3.1717,0,6.3431,0,6.3431,3.1716Zm-1690.4522,9.5147,6.3431-3.1716V1914.93H753.1443v3.1717Zm1674.5943,63.4317c-3.1717,0-3.1717-3.1717-3.1717-6.3432V1975.19c0-6.3431,6.3432-9.5148,12.6865-9.5148,3.1716,0,3.1716,0,3.1716,3.1717v6.3431C2443.5966,1978.3619,2440.4251,1984.7051,2434.0818,1984.7051Zm-1687.2806,6.3431,3.1715-6.3431-3.1715-6.3432c0-3.1716,0-3.1716-3.1716-3.1716v9.5148Zm-57.0885,6.3431V1994.22l-3.1715-6.3431c0-3.1716,0-3.1716-3.1716-3.1716v6.3431l3.1716,6.3431h3.1715Zm1550.9026,15.858c3.1716,0,6.3432,0,9.5148-3.1716l6.3432-12.6864V1994.22H2250.13c-6.3432,0-12.6863,6.3431-12.6863,12.6864v3.1717A3.1062,3.1062,0,0,0,2240.6153,2013.2493Zm171.2653-3.1716-6.3431-3.1717v-3.1716l6.3431-3.1717,6.3431,3.1717v3.1716Zm-136.3779,31.7157c3.1716-3.1717,6.3432-6.3431,6.3432-9.5148v-6.3431c0-3.1716-3.1715-6.3431-9.5148-6.3431-3.1715,0-6.3432,6.3431-6.3432,12.6864s3.1716,9.5148,6.3432,9.5148h3.1716Zm-111.0053-6.3431c3.1715,0,6.3432-3.1717,9.5147-6.3431,0-6.3431,0-9.5148-6.3432-9.5148s-9.5147,3.1717-9.5147,9.5148C2161.3257,2032.2788,2161.3257,2035.45,2164.4974,2035.45Zm34.8874,15.8578,12.6863-3.1716c6.3432-3.1717,9.5147-9.5148,9.5147-12.6864v-3.1717h-3.1715c-3.1716,0-6.3432,0-9.5148,3.1717-6.3432,6.3431-9.5147,12.6864-9.5147,15.8578ZM743.63,2054.48l9.5147-3.1717c0-3.1716-6.3431-6.3431-9.5147-9.5147l-6.3432-3.1717-3.1715,6.3431c0,6.3431,6.3431,9.5148,9.5147,9.5148Zm-136.3779,38.059H604.08c-3.1716,0-3.1716-3.1716-6.3432-6.3431,0-6.3431,3.1716-15.8578,6.3432-22.2009s3.1716-9.5148,6.3431-9.5148c0,3.1717,3.1716,6.3431,3.1716,15.8579v6.3431A24.2259,24.2259,0,0,1,607.2517,2092.5388Zm1668.251,57.0884v-6.3431c0-6.3432,12.6863-19.03,28.5442-31.7158,19.03-12.6864,25.3726-19.03,28.5442-19.03l-6.3431,19.03c-9.5147,9.5148-22.2009,22.201-28.5442,22.201q-14.2722,0-19.0295,9.5148C2278.6743,2146.4557,2278.6743,2149.6272,2275.5027,2149.6272ZM2145.468,2114.74l12.6863-6.3431v-3.1717a6.8213,6.8213,0,0,0-6.3432-6.3431c-3.1717,0-9.5148,3.1717-12.6863,9.5148C2139.1248,2111.5683,2139.1248,2114.74,2145.468,2114.74Zm76.1178,19.03s-3.1715-3.1717-3.1715-9.5148c0-3.1716,3.1715-9.5147,6.3432-9.5147a6.8214,6.8214,0,0,1,6.3432,6.3431v3.1716q-4.7574,9.5147-9.5148,9.5148Zm-44.4021,9.5148,6.3432-3.1717-3.1716-3.1717c0-3.1716-3.1715-3.1716-6.3432-3.1716a3.1062,3.1062,0,0,0-3.1715,3.1716v3.1717Zm-88.8042,25.3726,9.5148-12.6864c6.3432-6.3431,6.3432-9.5148,6.3432-9.5148h-9.5148c-6.3432,3.1717-12.6863,9.5148-12.6863,12.6864,0,6.3431,3.1716,9.5148,6.3432,9.5148Zm152.2358,0c-3.1715,0-9.5147-3.1717-12.6863-9.5148l-3.1715-6.3431,6.3432,3.1717c3.1715,3.1716,9.5147,6.3431,9.5147,9.5147v3.1717ZM2253.3016,2175l3.1716-9.5148c0-6.3431,3.1715-9.5147,6.3432-9.5147h3.1715v3.1716l-6.3432,12.6864Zm50.7453,3.1716L2297.7038,2175v-3.1717l6.3431-3.1716,6.3431,3.1716V2175Zm-250.5547,25.3726c3.1715,0,6.3432,0,6.3432-3.1716l-3.1716-3.1717-6.3432-3.1716-3.1715,6.3431Zm244.2116,15.8579a3.1063,3.1063,0,0,1-3.1717-3.1717c0-3.1716,6.3431-6.3431,15.8579-12.6864l12.6864-6.3431-3.1717,9.5148C2313.5616,2216.23,2304.0469,2219.4019,2297.7038,2219.4019Zm-339.3591,0,12.6863-3.1717c6.3432-3.1716,12.6863-9.5147,12.6863-15.8578l-6.3432-3.1717-9.5147,6.3431c-6.3432,6.3431-9.5148,12.6864-9.5148,15.8579Zm183.9516,3.1717c-3.1715,0-3.1715-3.1717-3.1715-6.3432v-3.1716c0-6.3431,6.3432-9.5148,6.3432-9.5148,3.1715,0,6.3432,3.1717,6.3432,9.5148,0,3.1716-3.1716,9.5148-9.5148,9.5148Zm31.7158,0-6.3432-9.5148q0-9.5146,9.5148-9.5148c6.3432,0,6.3432,3.1717,6.3432,9.5148Zm-142.721,6.3431a6.8215,6.8215,0,0,0,6.3432-6.3431c0-6.3432-3.1715-9.5148-6.3432-9.5148l-6.3432,12.6864Zm63.4315,222.0106-12.6863-6.3431c-3.1715-3.1717-6.3432-6.3431-6.3432-12.6864,0-12.6864,15.8579-34.8874,38.0589-47.5738,12.6864-3.1717,19.03-15.8579,19.03-25.3726v-9.5148h6.3432c6.3432,0,22.201-9.5147,34.8873-19.03,66.6032-60.26,117.3486-101.49,120.52-101.49,0,9.5147-63.4316,72.9463-69.7747,72.9463l-3.1716,3.1717,3.1716,12.6864c0,12.6864-19.03,31.7157-31.7159,31.7157l-12.6863-3.1716,6.3432,12.6864c0,9.5147-19.03,25.3726-31.7158,25.3726l-12.6863-3.1717v6.3432c0,9.5147-19.03,31.7157-31.7158,31.7157-9.5148,0-19.03,12.6864-19.03,19.0295v3.1716l6.3432,6.3431Zm-50.7452-133.2064,3.1716-3.1716-3.1716-9.5148-9.5147-12.6864c-3.1716,0-3.1716,6.3431-3.1716,12.6864C2034.4627,2311.3776,2037.6343,2317.7209,2043.9774,2317.7209Zm-22.2011,41.2305,15.8579-3.1717,22.2011-19.03c0-6.3431-6.3432-9.5147-15.8579-9.5147a38.482,38.482,0,0,0-15.8579,3.1716Zm-57.0884,28.5443c6.3432,0,12.6863-6.3432,12.6863-15.8579v-6.3431c-3.1715,0-6.3432,0-9.5147,3.1716-6.3432,3.1717-12.6863,9.5148-12.6863,12.6865s3.1715,6.3431,9.5147,6.3431Zm-22.2011,0c3.1716,0,3.1716-3.1717,3.1716-6.3432q0-9.5147-9.5148-9.5147l-6.3432,3.1716,3.1716,6.3431Zm63.4316,6.3431c-3.1716,0-3.1716-3.1717-6.3432-6.3431,0-3.1717,0-6.3432,3.1715-6.3432a3.1063,3.1063,0,0,1,3.1716,3.1717l3.1715,3.1717Zm-196.6379,104.6621c15.8578,0,31.7158-3.1717,31.7158-6.3431l-12.6863-9.5148-6.3432-3.1716c0-3.1717,3.1715-3.1717,9.5147-6.3431l31.7158-25.3727,9.5148-12.6864c0-3.1716-3.1716-3.1716-9.5148-3.1716s-19.03,12.6864-28.5442,22.2009c-9.5148,12.6864-22.2011,22.201-28.5443,22.201s-15.8579,6.3431-19.0295,12.6864l-3.1716,3.1717c0,3.1716,9.5148,6.3431,25.3727,6.3431Zm76.1179-31.7157c6.3432,0,9.5148-3.1717,9.5148-3.1717v-3.1717l-3.1716-6.3431c-3.1715,0-6.3432,0-9.5147,3.1717l-12.6864,6.3431C1869.5405,2466.7852,1875.8838,2466.7852,1885.3984,2466.7852Zm130.0347,38.059c-3.1715,0-3.1715-3.1717-3.1715-6.3431l3.1715-12.6864c3.1716-9.5148,9.5148-15.8579,15.8579-15.8579h6.3432l-3.1715,3.1717a17.4413,17.4413,0,0,0-9.5148,15.8578v3.1717c0,6.3431-3.1716,12.6864-9.5148,12.6864Zm-9.5147,44.4021c-3.1716,0-9.5148-6.3431-9.5148-9.5148v-6.3431h6.3432l12.6863,9.5148C2015.4331,2546.0749,2012.2616,2549.2463,2005.9184,2549.2463Zm-285.4422,15.8579q4.7574,0,9.5148-9.5148v-3.1716l-6.3432-3.1717-6.3432,3.1717v3.1716c0,6.3431,3.1715,9.5148,3.1715,9.5148Zm120.52,19.0295c-3.1716,0-6.3432-3.1717-6.3432-9.5148v-3.1716q0-4.7575,9.5147-9.5148h6.3432c3.1716,0,3.1716,3.1717,3.1716,9.5148C1850.511,2577.79,1847.3394,2584.1337,1840.9963,2584.1337Zm-85.6327,6.3431c6.3432,0,6.3432-6.3431,6.3432-15.8579-3.1716-6.3431-6.3432-12.6864-9.5148-12.6864l-6.3432,12.6864C1745.8488,2584.1337,1749.02,2590.4768,1755.3636,2590.4768Zm-57.0885,19.03-9.5147-15.8579h19.03c15.8579,0,22.2011-6.3431,22.2011-12.6864l-6.3432-6.3431-6.3432,6.3431-9.5148,6.3431c-3.1716,0-3.1716-3.1716-6.3432-9.5147l-6.3432-9.5148c-3.1716,0-9.5148,3.1717-15.8579,9.5148l-9.5147,12.6864q0,4.7574,9.5147,9.5147Zm91.9758-19.03-3.1715-3.1717c0-3.1716-3.1716-3.1716-6.3432-3.1716a3.1062,3.1062,0,0,0-3.1716,3.1716v3.1717Zm-133.2062,31.7157,3.1715-6.3431-3.1715-6.3431c-3.1716-6.3431-9.5148-9.5148-12.6863-9.5148l-3.1716,6.3431v6.3431c6.3432,6.3431,9.5148,9.5148,12.6863,9.5148Zm-9.5148,63.4316c3.1716,0,6.3432,0,6.3432-3.1716,3.1716-6.3431,12.6863-15.8579,25.3726-19.03,34.8874-19.0295,53.9169-31.7157,53.9169-41.23a6.8212,6.8212,0,0,0-6.3432-6.3431h-3.1715c-12.6863,0-31.7159,12.6864-47.5737,28.5443-12.6863,15.8578-28.5443,25.3726-31.7158,25.3726a6.8214,6.8214,0,0,0-6.3432,6.3431l3.1715,6.3431Zm-101.4906,3.1717,28.5443-19.03c9.5148-6.3431,22.2011-12.6864,31.7158-12.6864h9.5148c6.3432,0,15.8579-3.1717,19.0295-9.5148l3.1716-6.3431a6.8213,6.8213,0,0,0-6.3432-6.3431c-6.3433,0-9.5148,6.3431-9.5148,12.6864v3.1717h-3.1716l-3.1715-6.3431c0-3.1717,3.1715-9.5148,9.5147-12.6864l9.5148-9.5148c0-3.1717,0-3.1717-3.1715-3.1717-9.5148,0-82.4611,50.7453-85.6328,63.4317l-3.1715,6.3431h3.1714Zm171.2654,6.3431c0-3.1717,0-9.5148-3.1716-12.6864h-3.1715l-3.1716,6.3431c3.1716,3.1716,3.1716,6.3431,6.3432,6.3431h3.1716Zm-253.7265,117.3485q4.7573,0,9.5148-9.5147c3.1715-6.3431,15.8578-19.03,25.3726-25.3727,9.5147-3.1716,28.5442-9.5147,38.0589-9.5147,12.6863,0,31.7158-6.3431,41.2306-15.8579,6.3432-6.3431,19.0295-12.6864,25.3726-12.6864l15.8578,3.1717v-3.1717l-12.6863-9.5147c-6.3432-6.3431-12.6863-9.5148-12.6863-12.6864s6.3432-6.3431,12.6863-12.6865l12.6863-12.6864-15.8578,6.3431c-12.6863,6.3431-22.2011,15.8579-22.2011,19.03s-6.3432,6.3431-12.6863,6.3431-22.2011,9.5147-28.5443,19.03c-9.5147,9.5147-25.3726,15.8578-34.8873,15.8578-6.3432,0-12.6863,3.1717-12.6863,9.5148,0,3.1716-6.3432,9.5147-15.8579,12.6864-9.5148,0-15.8579,9.5147-15.8579,19.03Zm241.04-79.2895a77.4408,77.4408,0,0,1-3.1715-22.2009c-3.1716-12.6865-6.3432-15.8579-12.6863-15.8579l-6.3432,3.1716-12.6863,9.5148,15.8578,12.6864c9.5148,6.3431,15.8579,12.6864,19.03,12.6864ZM1377.9456,2917.15c6.3431,0,9.5148,0,9.5148-6.3431s6.3431-9.5147,15.8579-9.5147c22.201,0,85.6326-34.8874,95.1474-50.7453,3.1715-9.5147,9.5147-12.6864,12.6863-12.6864s9.5147,3.1717,9.5147,12.6864c0,6.3431,9.5148,15.8579,19.03,15.8579l9.5148,3.1717c3.1716,0,3.1716-3.1717,3.1716-6.3432l-3.1716-15.8578a17.4415,17.4415,0,0,1,9.5148-15.8579c6.3432-6.3431,9.5147-19.03,9.5147-25.3726s3.1716-12.6864,12.6863-12.6864c28.5443,0,76.118-19.0295,76.118-31.7157q0-9.5147,9.5147-9.5148h12.6863c6.3432,0,9.5148-3.1716,9.5148-6.3431-3.1716-6.3431-6.3432-9.5147-12.6863-9.5147l-15.8579,3.1716-9.5147-6.3431-3.1716-6.3431c0-3.1716,3.1716-3.1716,6.3432-3.1716h6.3432v-3.1717c-3.1715-3.1716-6.3432-3.1716-9.5147-3.1716-9.5148,0-19.03,6.3431-19.03,15.8578v6.3431c0,3.1717-3.1716,6.3431-12.6864,9.5148-9.5147,0-25.3726,9.5147-31.7158,19.03s-15.8578,19.0295-22.201,19.0295c-3.1716,0-9.5148,3.1717-12.6863,9.5148s-25.3727,19.0295-47.5737,25.3726-38.0589,15.8578-38.0589,22.2009-9.5148,15.8579-25.3727,22.201-38.0589,19.0295-47.5736,28.5443c-9.5148,6.3431-22.2011,9.5147-28.5443,9.5147l-12.6863-3.1716,3.1716,6.3431c6.3432,6.3431,15.8579,9.5147,22.2011,9.5147Zm76.1179-168.0937c9.5148,0,19.03-3.1717,25.3727-12.6864l3.1715-9.5148-3.1715-3.1716c-6.3432,0-12.6864,6.3431-25.3727,12.6864l-9.5147,9.5147C1444.5488,2749.0558,1447.72,2749.0558,1454.0635,2749.0558Zm-25.3726,19.03,6.3431-3.1717v-3.1716l-6.3431-3.1717-6.3432,3.1717v3.1716Zm66.6031,38.059c3.1716,0,9.5148,0,12.6863-3.1716,12.6863-6.3431,22.2011-15.8579,22.2011-19.03s-3.1716-3.1716-6.3432-3.1716c-9.5148,3.1716-28.5443,12.6864-31.7158,22.201v3.1716h3.1715Zm-149.0642-3.1716,6.3431-3.1717v-3.1716h-12.6863v3.1716Zm79.2895,28.5442c6.3431,0,12.6863-6.3431,12.6863-9.5147,0-6.3431-6.3432-9.5148-9.5148-9.5148-6.3431,0-9.5147,3.1717-12.6863,9.5148v3.1716C1416.0045,2828.3455,1419.1761,2831.5169,1425.5193,2831.5169Zm25.3726,15.8579c3.1715,0,6.3432-3.1717,6.3432-9.5148a6.8213,6.8213,0,0,0-6.3432-6.3431l-6.3432,6.3431v3.1717A6.8212,6.8212,0,0,0,1450.8919,2847.3748Zm-107.8337,34.8874,3.1716-6.3431a24.2256,24.2256,0,0,1,15.8579-6.3431l15.8579,3.1716,3.1716-3.1716-3.1716-6.3432c-6.3431-9.5147-19.0294-15.8578-25.3726-15.8578H1346.23l-3.1716,25.3726v9.5148Zm231.5253-15.8579c6.3432,0,9.5148-6.3431,9.5148-9.5148,0-6.3431-3.1716-9.5147-6.3432-9.5147,0,0-6.3432,3.1716-6.3432,9.5147v3.1717c0,3.1716,0,6.3431,3.1715,6.3431ZM1441.3772,2917.15l-3.1716-6.3431h-9.5148v3.1717c0,3.1716,3.1716,3.1716,6.3432,3.1716h6.3431Zm-120.52,25.3726c12.6863-3.1716,22.201-6.3431,22.201-9.5147v-3.1717q0-9.5147-9.5147-9.5147l-25.3726,3.1716c-9.5148,3.1717-12.6864,6.3431-12.6864,9.5148C1295.4845,2939.3505,1304.9993,2942.5221,1320.8572,2942.5221Zm-69.7748,3.1717c6.3431,0,9.5147,0,9.5147-3.1717l-3.1716-3.1716-6.3431-3.1717-6.3432,3.1717v3.1716Zm152.2358,15.8579a17.4417,17.4417,0,0,0,15.8579-9.5148v-3.1717c0-3.1716,0-3.1716-3.1716-3.1716l-15.8579,3.1716-12.6863-9.5147c-3.1716,0-3.1716,3.1716-3.1716,6.3431,3.1716,9.5148,9.5148,15.8579,19.0295,15.8579Zm-231.5253,50.7452,6.3431-3.1717c6.3432-3.1716,12.6863-6.3431,12.6863-9.5147a38.48,38.48,0,0,0-15.8579-3.1717c-6.3431,0-9.5147,3.1717-9.5147,6.3431v3.1717a6.8213,6.8213,0,0,0,6.3431,6.3431Zm82.4611,41.2305h-6.3432c-3.1716,0-6.3431,0-6.3431-3.1717,0-6.3431,3.1716-9.5147,12.6863-9.5147l12.6863,3.1716C1266.94,3047.1843,1260.5971,3050.3557,1254.254,3053.5274Z" transform="translate(-585.0506 -186.4194)"/></g></svg>