
        <svg xmlns="http://www.w3.org/2000/svg" xmlns:xlink="http://www.w3.org/1999/xlink" version="1.1" width="3170.380210619607" 
        height="3275.685235706053" viewBox="0 -248.11671213544753 3170.380210619607 3275.685235706053">
			
			<g transform="scale(13.78426178530264) translate(10, 10)">
				<defs id="SvgjsDefs1226"><linearGradient id="SvgjsLinearGradient1231"><stop id="SvgjsStop1232" stop-color="#fe8dc6" offset="0"></stop><stop id="SvgjsStop1233" stop-color="#fed1c7" offset="1"></stop></linearGradient></defs><g id="SvgjsG1227" featureKey="monogramFeature-0" transform="matrix(2.8343780733448245,0,0,2.8343780733448245,51.680249750980906,-33.645776371559464)" fill="url(#SvgjsLinearGradient1231)"><path d="M10.62 60.18 l-1.32 -0.24 c-0.66 -0.12 -1.5 -0.36 -1.92 -0.6 s-0.84 -0.48 -1.02 -0.54 s-0.42 -0.3 -0.48 -0.48 c-0.12 -0.24 -0.3 -0.48 -0.48 -0.54 s-0.42 -0.24 -0.6 -0.36 l-0.12 -0.18 l0.36 0.06 c0 -0.06 -0.24 -0.3 -0.66 -0.6 c-0.78 -0.54 -2.58 -3.18 -2.7 -3.72 c0 -0.24 -0.12 -0.48 -0.18 -0.54 c-0.12 -0.06 -0.3 -0.42 -0.42 -0.84 c-0.12 -0.48 -0.3 -0.96 -0.36 -1.14 l-0.6 -3.42 c-0.24 -1.8 -0.36 -2.7 -0.36 -3.3 l0.06 -0.72 c0.12 -0.6 0.3 -1.02 0.42 -1.02 c0.36 -0.12 0.66 -0.9 0.66 -1.38 c0 -0.12 0 -0.24 -0.06 -0.3 c-0.06 -0.12 -0.24 -0.18 -0.3 -0.18 l-0.12 0.06 l0.18 0.36 c0 0.06 0 0.06 -0.12 0.06 s-0.24 -0.12 -0.3 -0.24 c0 -0.3 0.18 -1.56 0.3 -1.56 c0.06 0 0.06 -0.12 0.06 -0.18 l0 -0.48 c0 -0.36 0.06 -0.84 0.3 -1.56 l0.18 -0.96 c0.06 -0.36 0.24 -1.08 0.42 -1.62 l0.36 -1.14 c0 -0.42 0.9 -2.82 1.02 -2.94 l0.12 -0.06 c0.12 0 0.18 0.12 0.18 0.24 s-0.06 0.24 -0.12 0.3 c-0.12 0.18 -0.18 0.42 -0.18 0.66 c0.06 0.18 0.06 0.24 0.12 0.24 l0.18 -0.12 c0.12 -0.18 0.24 -0.66 0.24 -1.02 c0 -0.24 -0.06 -0.48 -0.18 -0.48 s-0.24 -0.12 -0.24 -0.3 l0 -0.06 c0 -0.3 0.3 -1.2 0.42 -1.32 c0.06 -0.06 0.3 -0.54 0.48 -1.08 s0.42 -1.14 0.54 -1.26 c0.06 -0.12 0.12 -0.3 0.12 -0.42 c0 -0.06 0 -0.18 0.12 -0.24 c0.06 -0.06 0.3 -0.42 0.48 -0.78 c0.18 -0.42 0.42 -0.72 0.54 -0.72 l0.06 -0.06 l0 -0.12 c0 -0.42 0.72 -2.16 1.08 -2.64 c0.12 -0.12 0.18 -0.18 0.24 -0.18 s0.06 0.06 0.06 0.12 c0 0.3 -0.18 0.9 -0.48 1.68 c-0.24 0.42 -0.3 0.54 -0.96 1.5 l-0.66 1.5 c-0.12 0.54 -0.3 1.02 -0.42 1.08 s-0.18 0.18 -0.18 0.24 c0 0.12 0.06 0.18 0.18 0.18 c0.06 0 0.3 -0.3 0.48 -0.72 s0.48 -0.84 0.72 -0.96 c0.18 -0.06 0.24 -0.18 0.24 -0.24 l0 -0.24 c0 -0.42 0.3 -1.44 0.54 -1.68 c0.12 -0.12 0.66 -1.38 0.66 -1.56 l0 -0.36 c0 -0.12 0.12 -0.24 0.24 -0.24 s0.42 -0.36 0.6 -0.78 l0.78 -1.32 l1.56 -2.22 c0.24 -0.36 0.42 -0.66 0.42 -0.72 c0 -0.3 3.18 -4.02 4.2 -4.92 c0.6 -0.54 1.14 -1.02 1.2 -1.14 c0.12 -0.12 0.24 -0.24 0.36 -0.24 c0.06 0 0.24 -0.18 0.48 -0.36 c0.42 -0.48 1.08 -0.96 1.68 -1.32 c0.18 -0.06 0.3 -0.18 0.3 -0.24 l-0.06 -0.06 c-0.12 0 -0.3 0.06 -0.42 0.12 c-0.18 0.24 -1.08 0.6 -1.38 0.6 l-0.12 -0.06 c0 -0.06 0.3 -0.3 0.72 -0.6 c0.42 -0.24 0.78 -0.6 0.78 -0.72 l0 -0.06 c0 -0.06 0.06 -0.06 0.12 -0.06 l0.3 0 c0.12 0 0.24 -0.06 0.3 -0.18 c0.24 -0.6 1.74 -1.02 3.12 -1.02 c0.48 0 0.9 0.06 1.32 0.12 c0.42 0.12 1.08 0.42 1.44 0.72 c0.78 0.54 2.04 1.92 2.04 2.28 l0 0.12 c0 0.24 0.6 1.26 1.2 2.04 c0.54 0.66 1.08 2.28 1.08 3.42 l0 0.48 c0 0.66 -0.12 0.9 -0.6 1.44 c-0.24 0.36 -0.54 0.54 -0.66 0.54 l-0.06 -0.06 l0.06 -0.24 l-0.18 0.12 l-0.24 0.12 c-0.06 0 -0.36 0.18 -0.6 0.48 c-0.96 1.02 -2.1 1.92 -2.46 1.92 c-0.18 0 -0.24 0 -0.24 -0.12 l0.12 -0.24 c0 -0.06 0 -0.06 -0.12 -0.06 l-0.36 0 c-0.12 0 -0.24 -0.06 -0.24 -0.18 c0 -0.24 0.24 -0.66 0.66 -1.38 c0.42 -0.66 0.78 -1.38 0.84 -1.56 c0 -0.24 0.18 -0.6 0.3 -0.78 c0.12 -0.24 0.24 -0.48 0.24 -0.66 c0 -0.12 -0.06 -0.18 -0.18 -0.18 l-0.3 0.12 l0 -0.06 l0.18 -0.42 c0 -0.06 -0.06 -0.12 -0.18 -0.18 c-0.06 -0.06 -0.12 -0.12 -0.12 -0.18 l0.12 -0.24 c0.18 -0.3 0.3 -0.54 0.3 -0.72 c0 -0.42 -0.3 -0.66 -0.9 -0.66 c-0.54 0 -2.64 0.54 -3.72 0.96 c-0.78 0.3 -3 1.68 -3.18 1.98 c0 0.06 -0.3 0.36 -0.6 0.6 s-0.54 0.66 -0.6 0.84 c0 0.24 -0.12 0.42 -0.3 0.42 c-0.36 0 -1.14 0.78 -1.14 1.14 l0.06 0.12 l-0.12 0.06 l-0.06 0 c-0.18 0 -0.3 0.3 -0.42 0.72 c0 0.18 -0.18 0.3 -0.36 0.3 c-0.24 0 -0.3 0.12 -0.3 0.36 l0 0.12 c0 0.12 -0.06 0.18 -0.18 0.18 s-0.18 -0.06 -0.18 -0.12 l0 -0.18 l-0.12 0.12 l-0.12 0.18 c0 0.06 0.06 0.06 0.12 0.12 c0.12 0.06 0.12 0.12 0.12 0.18 s0 0.18 -0.12 0.3 c-0.06 0.12 -0.18 0.18 -0.3 0.18 l-0.12 0 l-0.18 0.06 l0 0.06 c0 0.06 0.06 0.12 0.12 0.12 l0.06 0.06 l-0.12 0.24 c-0.3 0.3 -0.72 0.54 -0.96 0.54 l-0.06 0 c-0.12 0 -0.12 0.06 -0.12 0.12 s0.12 0.24 0.24 0.36 l0.12 0.12 l0 0.06 l-0.6 -0.12 l0.24 0.18 c0.12 0.12 0.24 0.24 0.24 0.3 l-0.06 0 c-0.3 0 -1.14 1.02 -1.14 1.32 l0 0.18 c0 0.12 -0.12 0.3 -0.24 0.36 c-0.36 0.18 -0.72 0.84 -0.72 1.32 l0 0.12 c0 0.12 -0.06 0.18 -0.18 0.18 c-0.18 0 -0.24 0.12 -0.24 0.24 s0 0.24 -0.06 0.24 c-0.12 0 -0.24 0.36 -0.36 0.78 s-0.24 0.72 -0.3 0.72 s-0.24 0.12 -0.42 0.3 l-0.12 0.12 l0.18 -0.06 c0.06 0 0.06 0.06 0.06 0.12 c0 0.12 -0.06 0.3 -0.24 0.42 c-0.12 0.06 -0.18 0.18 -0.18 0.3 l0 0.24 c0 0.18 -0.06 0.42 -0.24 0.72 c-0.18 0.36 -0.3 0.78 -0.3 0.84 s-0.06 0.12 -0.12 0.12 l-0.3 -0.12 l-0.06 0.06 l0.06 0.3 c0 0.18 -0.06 0.36 -0.12 0.54 c-0.42 0.6 -0.48 0.72 -0.48 0.96 c0 0.54 -0.36 1.68 -0.48 1.68 c-0.06 0 -0.12 0.12 -0.12 0.24 l0 0.06 c0 0.42 -0.42 1.5 -0.6 1.5 c-0.12 0 -0.42 1.56 -0.42 1.86 l0 0.06 c0 0.3 -0.24 1.08 -0.54 2.04 c-0.12 0.36 -0.18 0.78 -0.18 0.96 l0 0.12 c0 0.06 0 0.12 -0.06 0.12 s-0.12 0.18 -0.12 0.3 c0 0.18 -0.06 0.96 -0.24 1.74 l-0.24 1.68 l-0.12 0.6 c-0.12 0.3 -0.18 0.9 -0.18 1.62 c0 2.04 0.42 5.1 0.9 5.88 c0.42 0.6 1.68 1.2 2.88 1.32 c0.54 0.06 1.02 0.18 1.02 0.3 c0 0.06 0 0.06 0.06 0.06 l0.06 -0.06 c0.06 -0.18 0.36 -0.3 0.54 -0.3 c0.06 0 0.12 0 0.12 0.06 l0.06 0.06 l0.24 -0.12 c0.12 -0.18 0.3 -0.3 0.48 -0.3 l0.18 0.06 c0 0.06 -0.06 0.06 -0.12 0.12 s-0.12 0.12 -0.12 0.18 l0.18 0 c0.12 0 0.24 -0.06 0.24 -0.18 l0 -0.06 c0 -0.06 0.06 -0.12 0.18 -0.12 l0.18 0 c0.54 0 1.86 -0.42 1.86 -0.66 c0 -0.06 0.12 -0.12 0.3 -0.12 s0.36 -0.12 0.42 -0.18 c0.12 -0.24 1.32 -0.96 2.34 -1.32 c0.48 -0.18 1.08 -0.6 1.32 -0.9 s0.96 -0.84 1.56 -1.2 s1.08 -0.78 1.08 -0.9 c0 -0.06 0 -0.12 0.06 -0.12 l0.06 0 c0.18 0 1.86 -1.26 2.52 -1.92 c0.12 -0.06 0.66 -0.54 1.2 -1.02 s1.08 -0.96 1.14 -1.08 c0 -0.12 0.24 -0.24 0.42 -0.24 l0.24 -0.06 l0 -0.06 c0 -0.12 0.18 -0.24 0.42 -0.42 s0.48 -0.3 0.48 -0.42 s0.12 -0.24 0.3 -0.24 c0.12 -0.06 0.54 -0.48 0.96 -0.84 c0.36 -0.42 0.78 -0.78 0.9 -0.78 c0.18 0 0.24 -0.12 0.24 -0.24 l0 -0.06 c0 -0.18 0.18 -0.36 0.42 -0.48 c0.24 -0.18 0.42 -0.42 0.42 -0.54 c0 -0.06 0.06 -0.18 0.24 -0.18 c0.12 0 0.78 -0.6 1.38 -1.32 c0.72 -0.72 1.14 -1.14 1.26 -1.14 l0.18 0.06 c0.06 0 0.12 -0.12 0.18 -0.36 c0.12 -0.3 0.3 -0.48 0.42 -0.48 l0.06 0 l0.06 -0.12 l0 -0.12 c0 -0.06 0.06 -0.12 0.12 -0.12 l0.06 0 c0.12 0 0.18 0.06 0.18 0.18 l0.06 0.24 l0.18 -0.42 c0 -0.12 -0.06 -0.18 -0.12 -0.24 s-0.12 -0.12 -0.12 -0.18 l0.12 -0.18 l1.02 -1.08 c0.48 -0.66 0.9 -0.9 1.2 -0.9 s0.6 -0.24 0.96 -0.72 s0.66 -0.72 0.9 -0.72 c0.06 0 0.12 0.06 0.12 0.24 l0 0.06 c-0.06 0.18 -0.12 0.3 -0.18 0.3 s-0.12 0.06 -0.12 0.12 l0.06 0.42 c0 0.12 -0.06 0.18 -0.12 0.18 c-0.12 0 -0.18 0.06 -0.18 0.12 c0 0.12 -0.06 0.12 -0.18 0.12 l-0.12 -0.06 l-0.12 0.12 l0 0.06 c0 0.06 0.06 0.12 0.18 0.12 c0.18 0 0.3 0.06 0.3 0.12 c0 0.12 -0.06 0.18 -0.12 0.18 s-0.18 0.18 -0.18 0.36 l0 0.12 c0 0.06 0 0.12 0.06 0.12 c0.12 0 0.36 -0.24 0.66 -0.72 c0.18 -0.3 0.48 -0.54 0.54 -0.54 l0.06 0.06 l-0.24 0.36 c-0.24 0.18 -0.36 0.36 -0.36 0.48 l0.12 0.36 l-0.06 0.12 c-0.06 0 -0.24 0 -0.42 0.06 c-0.18 0 -0.42 0 -0.54 -0.12 l-0.18 -0.06 c-0.06 0 -0.18 0.06 -0.3 0.18 l-0.18 0.18 l0.12 0.06 c0.12 0 0.12 0 0.12 0.06 l-0.12 0.36 c0 0.06 0.06 0.06 0.18 0.06 l0.18 0.06 l-0.06 0.06 l-0.12 0 c-0.12 0 -0.24 -0.06 -0.36 -0.12 l-0.24 -0.12 l-0.24 0.12 c0 0.06 0.06 0.18 0.24 0.24 c0.12 0.12 0.18 0.18 0.18 0.24 l-0.06 0.12 l-0.06 0 c-0.06 0 -0.12 0 -0.12 -0.06 l-0.06 -0.06 c-0.06 0 -0.12 0 -0.18 0.12 l-0.24 0.3 c0 0.06 0.06 0.06 0.12 0.06 l0.12 0 c0.06 0 0.18 0.06 0.3 0.18 l0 0.18 l-0.18 -0.06 c-0.06 0 -0.12 0.12 -0.18 0.24 c0 0.18 -0.18 0.3 -0.3 0.3 c-0.18 0 -0.24 -0.06 -0.24 -0.18 c0 -0.06 0.06 -0.12 0.18 -0.18 l0.06 -0.06 l-0.18 0 c-0.18 0.06 -0.3 0.12 -0.3 0.3 l0 0.24 l-0.12 0 c-0.12 0 -0.12 0.06 -0.18 0.12 l0 0.06 s0.06 0.06 0.18 0.06 s0.3 0.12 0.36 0.24 l0 0.12 c0 0.06 -0.06 0.12 -0.12 0.12 c-0.18 0 -0.24 -0.06 -0.3 -0.18 c0 -0.06 -0.06 -0.12 -0.18 -0.12 c-0.06 0 -0.06 0.06 -0.06 0.12 l0.12 0.48 l-0.06 -0.06 c-0.06 -0.12 -0.18 -0.18 -0.36 -0.18 s-0.36 0.12 -0.54 0.3 s-0.24 0.24 -0.24 0.3 s0.12 0.06 0.36 0.06 s0.48 0.06 0.48 0.18 c0 0.06 -0.06 0.12 -0.18 0.12 s-0.36 0.18 -0.6 0.42 c-0.18 0.18 -0.24 0.24 -0.3 0.24 l0.24 -0.24 l0.12 -0.36 c0 -0.06 0 -0.06 -0.06 -0.06 c-0.24 0 -0.42 0.36 -0.48 0.78 c0 0.12 -0.12 0.36 -0.3 0.48 s-0.36 0.24 -0.42 0.36 l-0.06 0 l-0.06 -0.12 c0 -0.18 -0.06 -0.3 -0.18 -0.3 s-0.24 0.18 -0.42 0.48 s-0.42 0.54 -0.54 0.54 s-0.18 0 -0.18 0.06 l0.06 0.18 c0 0.12 -0.18 0.3 -0.36 0.42 c-0.48 0.24 -0.78 0.54 -0.78 0.72 l0.06 0 c0.12 0 0.24 -0.06 0.36 -0.12 l0.36 -0.18 c0.06 0 0.06 0 0.06 0.06 c0 0.24 -0.78 0.66 -1.44 0.72 c-0.12 0 -0.18 0.06 -0.18 0.06 l0 0.12 c0 0.06 -0.12 0.12 -0.24 0.18 s-0.24 0.12 -0.24 0.18 l0.12 0.12 c0.06 0.06 0.12 0.06 0.18 0.06 s0.18 -0.06 0.3 -0.18 s0.24 -0.18 0.3 -0.18 c0 0.06 -0.18 0.36 -0.48 0.66 c-0.3 0.24 -0.42 0.36 -0.42 0.48 s0.06 0.18 0.18 0.24 l0.18 0.12 c0.12 0 0.3 -0.12 0.54 -0.42 c0.24 -0.24 0.48 -0.48 0.54 -0.48 s0.3 -0.24 1.14 -1.02 c0.24 -0.3 0.48 -0.42 0.54 -0.42 l0 0.06 c0 0.24 -0.3 0.72 -0.48 0.72 c-0.12 0 -0.36 0.12 -0.48 0.36 c-0.12 0.18 -0.42 0.48 -0.66 0.66 l-0.72 0.66 c-0.96 0.96 -1.32 1.32 -1.44 1.32 s-0.18 0.06 -0.18 0.12 l0 0.06 c0 0.06 -0.06 0.12 -0.12 0.12 s-0.12 -0.06 -0.12 -0.18 l0 -0.12 c0 -0.24 0 -0.36 -0.12 -0.36 c-0.06 0 -0.12 -0.06 -0.12 -0.12 l0 -0.12 c0 -0.06 0 -0.06 -0.06 -0.06 l-0.06 0 l-0.12 0.12 l0 0.12 c0 0.24 -0.3 0.72 -0.54 0.72 c-0.18 0 -0.3 0.06 -0.3 0.18 c0 0.06 -0.12 0.12 -0.24 0.12 l-0.78 -0.12 l-0.12 0.06 l0.06 0.18 l-0.12 0.36 c0 0.06 0.06 0.06 0.18 0.06 s0.24 -0.06 0.24 -0.18 s0.12 -0.18 0.24 -0.18 c0.18 0 0.42 0.12 0.48 0.24 c0 0.06 0.06 0.12 0.12 0.12 l0.18 -0.18 c0.12 -0.24 0.48 -0.42 0.66 -0.42 c0 0 0.06 0 0.06 0.06 c0 0.3 -0.72 1.02 -1.08 1.14 l-0.18 0 c-0.18 0 -0.24 -0.06 -0.24 -0.12 s0.06 -0.12 0.18 -0.18 l0.12 -0.06 l-0.12 -0.06 c-0.24 0 -1.08 0.78 -1.08 1.02 l0.12 0.06 c0.24 0 0.6 -0.12 0.84 -0.3 l0.12 -0.12 l-0.06 0.3 c-0.12 0.18 -0.42 0.42 -0.72 0.48 l-0.36 0.06 c-0.24 0 -0.36 -0.06 -0.36 -0.18 c0 -0.06 0 -0.12 0.12 -0.18 l0.12 -0.12 l-0.06 0 c-0.12 0 -0.36 0.12 -0.6 0.3 c-0.18 0.18 -0.54 0.36 -0.78 0.36 s-0.42 0 -0.42 0.12 l0.3 0.3 l0.24 0.18 c0.12 0 0.18 -0.06 0.24 -0.18 c0.12 -0.18 0.36 -0.24 0.42 -0.24 s0.06 0 0.06 0.06 l-0.12 0.06 c-0.12 0.12 -0.24 0.42 -0.24 0.66 c-0.06 0.3 -0.18 0.54 -0.3 0.54 s-0.24 0.12 -0.3 0.3 c-0.06 0.24 -0.6 0.78 -0.72 0.78 l-0.06 -0.06 c0 -0.12 -0.12 -0.18 -0.24 -0.18 c-0.06 0 -0.06 0.06 -0.06 0.24 l0 0.18 c0.12 0.3 0.24 0.48 0.3 0.48 c0.12 0 0.3 0.06 0.36 0.12 l0.18 0.06 l0.12 -0.06 c0.06 -0.06 0.06 -0.12 0.06 -0.18 c0 -0.12 -0.12 -0.18 -0.36 -0.18 c-0.12 0 -0.24 0 -0.24 -0.06 l0.12 -0.18 c0.24 -0.24 0.66 -0.54 0.84 -0.54 l-0.06 0.18 l0.12 0.06 c0.12 0 0.18 -0.06 0.18 -0.18 s0 -0.3 -0.06 -0.42 c0 -0.18 0.18 -0.36 0.3 -0.36 c0.06 0 0.12 0.06 0.12 0.12 c0.06 0.12 0.12 0.18 0.24 0.18 c0.06 0 0.12 -0.06 0.12 -0.12 l0 -0.06 c0 -0.3 0.48 -0.78 0.78 -0.78 c0.12 0 0.3 -0.12 0.42 -0.3 c0.06 -0.12 0.3 -0.24 0.42 -0.24 c0.18 0 0.36 -0.18 0.42 -0.42 s0.3 -0.42 0.48 -0.42 s0.3 0 0.3 0.06 l-0.18 0.24 c-0.12 0.18 -0.18 0.48 -0.18 0.72 l0 0.12 c0 0.12 -0.06 0.24 -0.12 0.24 c-0.12 0 -0.48 0.3 -0.84 0.66 c-0.36 0.3 -0.66 0.54 -0.84 0.54 l-0.24 -0.06 l-0.06 0.06 l0.12 0.3 c0 0.06 -0.06 0.12 -0.24 0.18 c-0.12 0.06 -0.18 0.12 -0.18 0.24 l0 0.12 c0 0.12 -0.3 0.24 -0.6 0.24 l-0.36 -0.06 c-0.18 0 -0.24 0.12 -0.24 0.36 c-0.06 0.24 -0.24 0.42 -0.48 0.42 c-0.12 0 -0.24 -0.06 -0.3 -0.24 l0 -0.06 c-0.06 0 -0.06 0.06 -0.12 0.18 s-0.24 0.24 -0.36 0.24 s-0.3 0.12 -0.36 0.24 l0 0.06 l0.06 0.06 l0.24 -0.06 l0.3 0 c0 0.12 -0.3 0.36 -0.84 0.78 c-0.78 0.54 -1.08 0.72 -2.34 1.5 c-0.36 0.18 -0.54 0.24 -0.66 0.24 c-0.06 0 -0.06 0 -0.06 -0.06 l0 -0.18 c0 -0.06 0 -0.06 -0.06 -0.06 c-0.12 0 -0.18 0.12 -0.18 0.24 l0 0.36 c0 0.36 -0.18 0.54 -0.84 0.66 c-0.42 0.06 -0.72 0.18 -0.78 0.24 c-0.12 0.24 -1.5 0.78 -1.8 0.78 l-0.12 0 c-0.12 0 -0.12 0.06 -0.12 0.24 l0 0.24 l-0.12 0.06 l-0.6 -0.12 c0 0.06 0 0.06 0.12 0.12 l0.12 0.12 l-0.06 0.06 l-0.36 -0.06 c-0.36 -0.06 -0.72 -0.12 -0.78 -0.18 c-0.06 0 -0.12 0.06 -0.12 0.18 l0 0.18 c0 0.18 -0.12 0.24 -0.36 0.24 l-0.36 -0.06 l0.18 -0.12 c0.12 -0.06 0.18 -0.06 0.18 -0.12 l-0.24 -0.06 c-0.18 0 -0.36 0.06 -0.48 0.12 c-0.18 0.06 -0.24 0.18 -0.24 0.18 c0 0.06 0 0.06 0.06 0.06 s0.12 0.06 0.12 0.12 l0 0.06 c-0.06 0.06 -0.12 0.12 -0.18 0.12 z M16.98 9.840000000000003 c0.18 0 0.42 -0.12 0.54 -0.24 l0.12 -0.24 c-0.06 0 -0.24 0.06 -0.48 0.24 l-0.3 0.18 c0 0.06 0.06 0.06 0.12 0.06 z M12.96 12.18 l-0.06 -0.06 c0 -0.06 0.18 -0.36 0.54 -0.72 c0.78 -0.84 1.38 -1.32 1.5 -1.32 c0 0 0.06 0 0.06 0.06 s-0.18 0.3 -0.48 0.54 c-0.24 0.24 -0.66 0.66 -0.9 0.96 c-0.18 0.3 -0.54 0.54 -0.66 0.54 z M16.32 10.68 c0.12 0 0.24 -0.12 0.24 -0.18 c-0.06 -0.12 -0.12 -0.18 -0.18 -0.18 c-0.12 0 -0.24 0.06 -0.24 0.18 l0 0.06 c0 0.06 0.06 0.12 0.18 0.12 z M15.6 11.159999999999997 c0.12 0 0.24 -0.06 0.24 -0.18 l0 -0.06 c0 -0.06 0 -0.12 -0.06 -0.12 c-0.12 0 -0.24 0.12 -0.24 0.18 l0 0.06 c0 0.06 0 0.12 0.06 0.12 z M8.7 17.880000000000003 c-0.06 0 -0.12 -0.06 -0.12 -0.18 s0.18 -0.48 0.48 -0.78 l0.78 -1.26 c0.18 -0.3 0.42 -0.54 0.48 -0.54 c0.12 0 0.18 0 0.18 -0.06 l0 -0.06 c0 -0.36 0.66 -1.32 0.9 -1.32 c0.12 0 0.24 -0.12 0.3 -0.3 c0.06 -0.3 0.72 -0.96 0.96 -1.02 l0.12 0.06 l0 0.06 c0 0.18 -0.42 0.66 -0.72 0.78 c-0.12 0.06 -0.24 0.24 -0.24 0.48 c0 0.18 -0.06 0.3 -0.3 0.3 l-0.42 0 l0.06 0.06 c0.12 0.06 0.24 0.18 0.24 0.24 c0 0.18 -0.48 0.9 -1.08 1.62 l-0.78 1.14 c-0.3 0.48 -0.6 0.78 -0.84 0.78 z M14.04 13.86 l0.66 -0.6 l0.42 -0.54 l-0.06 -0.06 c-0.18 0 -0.6 0.42 -0.9 0.9 z M12.84 14.280000000000001 l0.18 -0.06 c0.12 -0.06 0.18 -0.18 0.18 -0.24 s0 -0.06 -0.06 -0.06 l-0.18 0 c-0.12 0.06 -0.24 0.18 -0.24 0.24 s0.06 0.12 0.12 0.12 z M13.56 14.46 l0.06 -0.12 l-0.12 -0.12 l-0.06 0 l0 0.12 l0.06 0.12 l0.06 0 z M15.6 15 c0.06 0 0.12 -0.06 0.18 -0.18 c0 -0.06 0 -0.18 -0.06 -0.18 c0 0 -0.12 0.12 -0.12 0.18 l-0.06 0.12 z M11.22 17.520000000000003 l0.18 -0.18 c0.18 -0.12 0.36 -0.36 0.42 -0.6 l0.06 -0.24 l-0.18 0.18 l-0.42 0.54 z M13.2 18 l0.18 -0.18 c0 -0.06 0 -0.18 -0.12 -0.18 s-0.18 0.12 -0.18 0.18 c0.06 0.12 0.06 0.18 0.12 0.18 z M10.02 18.119999999999997 l0.12 -0.06 l0.12 -0.24 l-0.06 -0.12 l-0.12 0.06 l-0.12 0.24 z M10.62 18.18 c0.12 0 0.18 -0.06 0.24 -0.18 l-0.06 -0.12 l-0.12 0.06 l-0.24 0.18 c0 0.06 0.06 0.06 0.18 0.06 z M8.4 18.36 c-0.12 0 -0.18 -0.06 -0.18 -0.12 l0 -0.06 c0.06 -0.12 0.18 -0.18 0.24 -0.18 c0.12 0 0.18 0.06 0.18 0.18 c0 0.06 -0.06 0.18 -0.24 0.18 z M9.72 19.020000000000003 c0.3 0 0.54 -0.12 0.6 -0.18 l-0.06 -0.12 c-0.12 0 -0.24 0 -0.42 0.06 c-0.36 0.06 -0.54 0.12 -0.54 0.18 s0.12 0.06 0.42 0.06 z M7.8 19.68 c-0.18 0 -0.3 -0.06 -0.3 -0.18 c0 -0.18 0.3 -0.48 0.48 -0.48 c0 0 0.06 0 0.06 0.06 c0.06 0.06 0.06 0.12 0.06 0.18 c0 0.18 -0.12 0.42 -0.3 0.42 z M9.72 19.5 c0.06 0 0.12 -0.06 0.18 -0.18 l0.06 -0.12 l-0.06 -0.06 c-0.06 0 -0.12 0.12 -0.18 0.18 l0 0.18 z M7.38 20.1 c-0.06 0 -0.12 -0.06 -0.12 -0.12 s0.06 -0.12 0.24 -0.12 c0.12 0 0.24 0 0.24 0.06 z M10.92 21.479999999999997 c0.12 0 0.18 -0.06 0.18 -0.18 l0 -0.06 c0 -0.12 -0.06 -0.18 -0.18 -0.18 l-0.12 0.06 c-0.06 0.06 -0.12 0.12 -0.12 0.18 l0 0.06 c0.06 0.12 0.18 0.12 0.24 0.12 z M10.02 22.740000000000002 l0.24 -0.24 l0.18 -0.42 l0 -0.06 l-0.06 0 c-0.18 0 -0.42 0.3 -0.42 0.54 l0 0.06 c0 0.06 0 0.12 0.06 0.12 z M8.16 22.32 l0.06 -0.18 l-0.06 -0.06 c0 -0.06 -0.06 -0.06 -0.06 -0.06 c-0.06 0 -0.06 0.06 -0.06 0.18 z M8.88 24.840000000000003 l0.18 -0.36 l0.06 -0.3 c-0.06 0 -0.12 0.12 -0.24 0.3 l-0.06 0.24 z M7.86 25.68 c0.12 0 0.18 -0.12 0.24 -0.3 l0.06 -0.24 l-0.06 -0.06 c-0.06 0 -0.12 0.06 -0.24 0.24 l-0.06 0.24 z M4.02 28.32 c0.06 0 0.18 -0.24 0.3 -0.48 l0.12 -0.48 l-0.06 -0.12 l-0.06 0 c-0.06 0 -0.06 0.06 -0.12 0.12 c-0.12 0.24 -0.24 0.6 -0.24 0.84 z M6.84 28.2 l0.12 -0.3 c0 -0.12 0 -0.24 -0.12 -0.24 c-0.06 0 -0.12 0.12 -0.12 0.24 c0 0.18 0.06 0.3 0.12 0.3 z M7.44 28.2 c0.06 0 0.12 -0.12 0.12 -0.3 c0 -0.12 -0.12 -0.24 -0.18 -0.24 c-0.12 0 -0.18 0.12 -0.18 0.24 c0.06 0.18 0.12 0.3 0.24 0.3 z M5.22 28.32 l0.12 -0.12 l0 -0.06 c0 -0.06 -0.06 -0.12 -0.12 -0.12 s-0.12 0.06 -0.12 0.18 c0 0.06 0.06 0.12 0.12 0.12 z M6.3 29.16 c0.06 0 0.12 -0.06 0.24 -0.24 l0.12 -0.18 c-0.06 0 -0.12 0 -0.18 0.06 c-0.12 0.06 -0.24 0.12 -0.24 0.18 l0 0.06 c0 0.06 0 0.12 0.06 0.12 z M3.54 29.64 l0.12 -0.24 l0 -0.18 c-0.06 0 -0.06 0 -0.06 0.06 c-0.06 0.06 -0.12 0.12 -0.12 0.18 l0 0.06 c0 0.12 0 0.12 0.06 0.12 z M5.4 31.02 c0.06 0 0.18 -0.12 0.24 -0.3 c0.12 -0.12 0.12 -0.18 0.12 -0.18 c-0.06 0 -0.12 0.06 -0.18 0.12 l-0.24 0.3 c0 0.06 0 0.06 0.06 0.06 z M2.7 31.86 l0.18 -0.18 c0 -0.12 0 -0.18 -0.12 -0.18 s-0.18 0.06 -0.18 0.18 z M36.36 32.82 c-0.06 0 -0.06 -0.06 -0.06 -0.12 l0 -0.18 c0.06 0 0.06 0 0.06 0.06 l0.06 0.12 z M4.98 33.36 c0.12 0 0.18 -0.06 0.18 -0.18 s-0.06 -0.18 -0.12 -0.18 c0 0 -0.12 0.06 -0.12 0.18 l0 0.06 c0 0.06 0 0.12 0.06 0.12 z M35.76 33.66 c-0.12 0 -0.18 -0.06 -0.18 -0.18 l0 -0.06 l0.12 0 c0.12 0.06 0.18 0.12 0.18 0.18 s-0.06 0.06 -0.12 0.06 z M2.28 34.32 l0 -0.24 c0 -0.12 -0.12 -0.24 -0.18 -0.24 s-0.12 0.06 -0.12 0.12 l0.06 0.12 c0.12 0.18 0.18 0.24 0.24 0.24 z M4.74 34.8 c0.06 0 0.12 -0.12 0.24 -0.48 l0.12 -0.3 l-0.54 0.42 l0.06 0.24 z M2.22 34.68 l-0.12 -0.18 c-0.06 -0.06 -0.24 -0.18 -0.3 -0.18 l-0.06 0.06 c0 0.06 0 0.06 0.12 0.12 z M34.74 35.04 c0.06 0 0.24 -0.12 0.36 -0.3 l0.12 -0.24 l-0.06 -0.06 c-0.06 0 -0.18 0.06 -0.36 0.24 l-0.12 0.3 c0 0.06 0 0.06 0.06 0.06 z M36.9 35.82 c-0.12 0 -0.12 -0.06 -0.12 -0.12 c0.06 -0.12 0.12 -0.18 0.18 -0.18 c0 0 0.06 0.06 0.06 0.18 l0 0.06 z M1.44 36.54 c0.12 0 0.18 -0.12 0.24 -0.3 l0.06 -0.24 l-0.06 -0.12 s-0.06 0 -0.18 0.12 s-0.24 0.3 -0.24 0.42 c0 0.06 0.06 0.12 0.18 0.12 z M34.8 36.18 c0.06 0 0.18 -0.06 0.18 -0.18 l0.06 -0.06 l-0.18 0 c-0.18 0.06 -0.24 0.12 -0.24 0.18 s0.06 0.06 0.18 0.06 z M3.78 36.78 l0.06 -0.12 l-0.06 -0.12 l-0.06 0 c-0.06 0 -0.06 0.06 -0.06 0.12 l0.06 0.12 l0.06 0 z M34.02 37.2 l0.12 -0.18 l0 -0.12 c0 -0.06 0 -0.06 -0.06 -0.06 c-0.12 0 -0.18 0.06 -0.18 0.18 c0 0.06 0.06 0.18 0.12 0.18 z M35.94 37.2 l-0.12 -0.06 l0 -0.06 c0 -0.06 0.06 -0.06 0.06 -0.06 c0.06 0 0.12 0 0.12 0.06 l0.06 0.06 c0 0.06 -0.06 0.06 -0.12 0.06 z M2.4 37.32 l-0.06 -0.06 c0 -0.06 -0.06 -0.06 -0.12 -0.06 c0 0 -0.06 0 -0.06 0.06 l0 0.06 l0.24 0 z M0.96 38.1 c0.18 0 0.48 -0.12 0.54 -0.3 l0.12 -0.3 c0 -0.12 -0.12 -0.18 -0.3 -0.18 c-0.12 0 -0.18 0.06 -0.18 0.18 l0 0.12 c0 0.12 -0.06 0.24 -0.12 0.24 c-0.12 0 -0.18 0.06 -0.18 0.18 c0 0.06 0.06 0.06 0.12 0.06 z M3.3 37.86 c0.06 0 0.24 -0.06 0.36 -0.18 l0.12 -0.12 c0 -0.06 -0.06 -0.06 -0.18 -0.06 c-0.18 0 -0.36 0.12 -0.36 0.18 l-0.06 0.12 z M35.04 38.16 l-0.24 0 l0 -0.06 c0 -0.06 0.06 -0.06 0.06 -0.06 c0.06 0 0.12 0 0.12 0.06 z M3.06 38.34 l0.12 -0.06 l0 -0.06 l-0.24 0 l0 0.06 z M34.74 39.54 c-0.06 0 -0.06 -0.06 -0.06 -0.12 l0 -0.06 c0 -0.12 0.12 -0.18 0.24 -0.18 c0.06 0 0.06 0 0.06 0.06 l0 0.12 c-0.06 0.06 -0.12 0.18 -0.24 0.18 z M2.82 39.66 l0.06 -0.12 l-0.06 -0.12 c0 -0.06 0 -0.06 -0.06 -0.06 l0 0.18 z M1.74 39.78 l0 -0.06 l-0.06 -0.12 c0 -0.06 0 -0.06 -0.06 -0.06 l0 0.12 l0.06 0.12 l0.06 0 z M31.08 40.08 c0.06 0 0.12 0 0.18 -0.06 l0.12 -0.24 l0 -0.06 l-0.12 0 c-0.12 0 -0.24 0.12 -0.24 0.24 l0 0.06 c0 0.06 0.06 0.06 0.06 0.06 z M34.32 40.019999999999996 l-0.12 -0.06 l0 -0.06 l0.12 -0.06 l0.12 0.06 l0 0.06 z M31.74 40.620000000000005 c0.06 -0.06 0.12 -0.12 0.12 -0.18 l0 -0.12 c0 -0.06 -0.06 -0.12 -0.18 -0.12 c-0.06 0 -0.12 0.12 -0.12 0.24 s0.06 0.18 0.12 0.18 l0.06 0 z M29.64 40.5 c0.06 0 0.12 -0.06 0.18 -0.12 c0 -0.12 0 -0.18 -0.12 -0.18 s-0.18 0.06 -0.18 0.18 c0.06 0.06 0.06 0.12 0.12 0.12 z M30.3 40.8 l0.24 -0.06 c0.12 -0.06 0.18 -0.18 0.18 -0.24 l0 -0.06 l-0.06 0 c-0.06 0 -0.12 0 -0.18 0.06 c-0.12 0.12 -0.18 0.24 -0.18 0.3 z M2.76 40.86 l0.18 -0.06 c0 -0.06 -0.12 -0.12 -0.18 -0.18 l-0.12 -0.06 l-0.06 0.12 c0 0.12 0.12 0.18 0.18 0.18 z M0.18 41.58 l-0.06 0 c-0.06 0 -0.06 -0.06 -0.12 -0.12 c0 -0.12 0.06 -0.3 0.12 -0.42 s0.06 -0.18 0.12 -0.18 c0 0.06 0.06 0.12 0.06 0.3 l0 0.12 c0 0.12 -0.06 0.24 -0.12 0.3 z M31.74 42.66 l0 -0.12 c0 -0.12 0.24 -0.36 0.54 -0.6 c0.36 -0.24 0.48 -0.36 0.54 -0.36 l-0.12 0.36 c-0.18 0.18 -0.42 0.42 -0.54 0.42 c-0.18 0 -0.3 0.06 -0.36 0.18 c0 0.06 0 0.12 -0.06 0.12 z M29.28 42 l0.24 -0.12 l0 -0.06 c0 -0.06 -0.06 -0.12 -0.12 -0.12 s-0.18 0.06 -0.24 0.18 c0 0.06 0 0.12 0.12 0.12 z M30.72 42.36 c0 0 -0.06 -0.06 -0.06 -0.18 c0 -0.06 0.06 -0.18 0.12 -0.18 s0.12 0.06 0.12 0.12 l0 0.06 c-0.06 0.12 -0.12 0.18 -0.18 0.18 z M29.88 42.54 l0.12 -0.06 l-0.06 -0.06 c0 -0.06 -0.06 -0.06 -0.12 -0.06 c0 0 -0.06 0 -0.06 0.06 l0 0.06 z M28.2 43.019999999999996 l0.18 -0.24 c0.12 -0.12 0.12 -0.18 0.12 -0.18 l-0.18 0 c-0.12 0.06 -0.24 0.18 -0.24 0.24 c0 0.12 0.06 0.18 0.12 0.18 z M31.08 43.019999999999996 c-0.06 0 -0.18 -0.06 -0.24 -0.18 l-0.06 -0.12 l0.12 0.06 c0.06 0.06 0.18 0.12 0.18 0.18 l0 0.06 z M31.32 43.14 l0.06 -0.18 c0 -0.12 0.06 -0.18 0.12 -0.18 l0.06 0 l0 0.06 l-0.12 0.24 z M32.28 43.2 l-0.12 -0.06 l0 -0.06 l0.12 -0.06 l0.12 0.06 l0 0.06 z M27.54 43.68 c0.06 0 0.12 0 0.12 -0.06 l-0.06 -0.06 l-0.12 -0.06 l-0.06 0.12 z M32.16 43.980000000000004 c0 0 -0.06 0 -0.06 -0.06 s0.12 -0.12 0.3 -0.24 l0.24 -0.12 l-0.06 0.18 c-0.12 0.18 -0.3 0.24 -0.42 0.24 z M25.74 43.980000000000004 l0.24 -0.06 c0.12 -0.06 0.24 -0.18 0.24 -0.3 l-0.12 -0.06 l-0.18 0.12 c-0.12 0.12 -0.18 0.24 -0.18 0.3 z M29.22 44.04 c-0.06 0 -0.06 -0.06 -0.06 -0.12 l0 -0.06 c0 -0.12 0.12 -0.18 0.12 -0.18 c0.06 0 0.12 0.06 0.12 0.18 c0 0.06 -0.06 0.18 -0.18 0.18 z M29.82 44.04 l-0.12 -0.18 c0 -0.12 0.06 -0.18 0.18 -0.18 s0.12 0.06 0.12 0.18 z M27.12 44.16 c0.06 0 0.12 -0.06 0.12 -0.12 c0 -0.12 -0.06 -0.18 -0.12 -0.18 l-0.12 0.24 z M28.32 48.36 l-0.24 -0.12 c-0.06 -0.06 -0.12 -0.12 -0.12 -0.24 c0 -0.24 0.3 -0.66 0.72 -0.9 c0.24 -0.06 0.36 -0.3 0.36 -0.48 l0 -0.18 l0.12 0 c0.12 0 0.42 -0.18 0.66 -0.36 c1.26 -1.14 2.22 -1.92 2.28 -1.92 c0 0.18 -1.2 1.38 -1.32 1.38 l-0.06 0.06 l0.06 0.24 c0 0.24 -0.36 0.6 -0.6 0.6 l-0.24 -0.06 l0.12 0.24 c0 0.18 -0.36 0.48 -0.6 0.48 l-0.24 -0.06 l0 0.12 c0 0.18 -0.36 0.6 -0.6 0.6 c-0.18 0 -0.36 0.24 -0.36 0.36 l0 0.06 l0.12 0.12 z M27.36 45.84 l0.06 -0.06 l-0.06 -0.18 l-0.18 -0.24 c-0.06 0 -0.06 0.12 -0.06 0.24 c0.06 0.12 0.12 0.24 0.24 0.24 z M26.94 46.62 l0.3 -0.06 l0.42 -0.36 c0 -0.12 -0.12 -0.18 -0.3 -0.18 s-0.3 0.06 -0.3 0.06 z M25.86 47.16 c0.12 0 0.24 -0.12 0.24 -0.3 l0 -0.12 c-0.06 0 -0.12 0 -0.18 0.06 c-0.12 0.06 -0.24 0.18 -0.24 0.24 s0.06 0.12 0.18 0.12 z M25.44 47.16 c0.06 0 0.06 -0.06 0.06 -0.12 c0 -0.12 -0.06 -0.18 -0.18 -0.18 l-0.12 0.06 l0.06 0.12 z M26.64 47.28 c-0.06 0 -0.06 -0.06 -0.12 -0.12 c0 -0.06 0 -0.12 0.06 -0.12 c0 0 0.06 0 0.06 0.06 l0.06 0.06 z M22.92 49.26 c0.3 0 0.6 -0.06 0.6 -0.12 l-0.24 -0.18 l-0.12 -0.06 c0 -0.06 0.06 -0.06 0.18 -0.12 l0.6 -0.48 l0.18 -0.24 c0 -0.06 -0.06 -0.06 -0.18 -0.06 s-0.36 0.24 -0.54 0.42 c-0.18 0.24 -0.42 0.42 -0.54 0.42 s-0.3 0.12 -0.36 0.24 l-0.06 0.06 c0 0.06 0.18 0.12 0.48 0.12 z M24.36 48.66 c0.12 0 0.18 -0.06 0.18 -0.06 l0 -0.06 l-0.06 -0.12 c-0.06 0 -0.12 0 -0.18 0.06 l-0.24 0.12 c0 0.06 0.12 0.06 0.3 0.06 z M26.82 49.38 c-0.06 0 -0.06 -0.06 -0.06 -0.12 l0.06 -0.24 c0.06 -0.18 0.18 -0.3 0.3 -0.3 l0.12 0 l-0.06 0.06 c-0.12 0.06 -0.18 0.18 -0.18 0.3 l0 0.06 c0 0.12 -0.06 0.24 -0.18 0.24 z M26.64 50.22 c-0.06 0 -0.18 -0.12 -0.18 -0.18 l0 -0.12 l0.12 0 l0.24 0.18 c0 0.06 -0.06 0.12 -0.18 0.12 z M21.24 50.519999999999996 c0.06 0 0.12 -0.06 0.18 -0.18 l0 -0.06 l-0.12 -0.06 l-0.12 0.06 l0 0.06 c0 0.12 0.06 0.18 0.06 0.18 z M23.52 50.88 c-0.06 0 -0.12 -0.06 -0.12 -0.18 l0 -0.06 c0 -0.06 0.06 -0.12 0.18 -0.18 l0.12 0 c0.06 0 0.06 0.06 0.06 0.18 c-0.06 0.12 -0.12 0.24 -0.24 0.24 z M21.9 51 c0.12 0 0.12 -0.12 0.12 -0.3 c-0.06 -0.12 -0.12 -0.24 -0.18 -0.24 l-0.12 0.24 c0 0.18 0.06 0.3 0.18 0.3 z M20.82 51.36 l-0.18 -0.3 l0.36 0 c0.3 0 0.42 -0.12 0.42 -0.24 l-0.12 -0.12 l-0.12 0.12 l-0.18 0.12 c-0.06 0 -0.06 -0.06 -0.12 -0.18 l-0.12 -0.18 c-0.06 0 -0.18 0.06 -0.3 0.18 l-0.18 0.24 c0 0.06 0.06 0.12 0.18 0.18 z M22.56 51 l-0.06 -0.06 c0 -0.06 -0.06 -0.06 -0.12 -0.06 c0 0 -0.06 0 -0.06 0.06 l0 0.06 l0.24 0 z M20.04 51.6 l0.06 -0.12 l-0.06 -0.12 c-0.06 -0.12 -0.18 -0.18 -0.24 -0.18 l-0.06 0.12 l0 0.12 c0.12 0.12 0.18 0.18 0.24 0.18 l0.06 0 z M19.86 52.8 c0.06 0 0.12 0 0.12 -0.06 c0.06 -0.12 0.24 -0.3 0.48 -0.36 c0.66 -0.36 1.02 -0.6 1.02 -0.78 c0 -0.06 -0.06 -0.12 -0.12 -0.12 l-0.06 0 c-0.24 0 -0.6 0.24 -0.9 0.54 c-0.24 0.3 -0.54 0.48 -0.6 0.48 s-0.12 0.06 -0.12 0.12 l0.06 0.12 z M17.94 52.86 l0.54 -0.36 c0.18 -0.12 0.42 -0.24 0.6 -0.24 l0.18 0 c0.12 0 0.3 -0.06 0.36 -0.18 l0.06 -0.12 c0 -0.06 -0.06 -0.12 -0.12 -0.12 c-0.12 0 -0.18 0.12 -0.18 0.24 l0 0.06 l-0.06 0 l-0.06 -0.12 c0 -0.06 0.06 -0.18 0.18 -0.24 l0.18 -0.18 c0 -0.06 0 -0.06 -0.06 -0.06 c-0.18 0 -1.56 0.96 -1.62 1.2 l-0.06 0.12 l0.06 0 z M21.18 52.980000000000004 c0 -0.06 0 -0.18 -0.06 -0.24 l-0.06 0 l-0.06 0.12 c0.06 0.06 0.06 0.12 0.12 0.12 l0.06 0 z M16.38 55.2 c0.06 0 0.12 -0.06 0.18 -0.18 s0.3 -0.36 0.48 -0.48 c0.18 -0.06 0.54 -0.18 0.72 -0.18 c0.24 0 0.6 -0.12 0.78 -0.3 c0.12 -0.12 0.36 -0.24 0.48 -0.24 l0.3 0.06 l0 -0.06 l-0.24 -0.18 c-0.12 -0.12 -0.24 -0.18 -0.24 -0.24 s0.12 -0.12 0.24 -0.24 l0.24 -0.24 l-0.3 0.12 c-0.24 0.12 -0.42 0.3 -0.42 0.36 s-0.12 0.12 -0.24 0.12 s-0.42 0.18 -0.54 0.36 c-0.18 0.18 -0.48 0.3 -0.66 0.3 c-0.12 0 -0.24 0.06 -0.24 0.18 c0 0.06 -0.12 0.18 -0.3 0.24 c-0.18 0 -0.3 0.18 -0.3 0.36 z M20.94 53.7 c0 0 -0.06 -0.18 -0.06 -0.42 c-0.06 -0.24 -0.12 -0.3 -0.24 -0.3 l-0.12 0.06 l-0.24 0.18 l0.3 0.24 c0.18 0.12 0.3 0.24 0.36 0.24 z M14.76 57.18 c0.12 0 0.18 0 0.18 -0.12 s0.12 -0.18 0.3 -0.18 c0.42 0 1.62 -0.66 1.8 -0.96 c0.06 -0.18 0.18 -0.24 0.24 -0.24 s0.18 0.06 0.18 0.24 c0 0.12 0.18 0.3 0.36 0.3 l0.18 0.06 c0.06 0 0.06 -0.06 0.06 -0.12 l-0.06 -0.3 c0 -0.12 0.06 -0.24 0.18 -0.3 c0.12 -0.12 0.18 -0.36 0.18 -0.48 s0.06 -0.24 0.24 -0.24 c0.54 0 1.44 -0.36 1.44 -0.6 c0 -0.12 0.06 -0.18 0.18 -0.18 l0.24 0 c0.12 0 0.18 -0.06 0.18 -0.12 c-0.06 -0.12 -0.12 -0.18 -0.24 -0.18 l-0.3 0.06 l-0.18 -0.12 l-0.06 -0.12 c0 -0.06 0.06 -0.06 0.12 -0.06 l0.12 0 l0 -0.06 c-0.06 -0.06 -0.12 -0.06 -0.18 -0.06 c-0.18 0 -0.36 0.12 -0.36 0.3 l0 0.12 c0 0.06 -0.06 0.12 -0.24 0.18 c-0.18 0 -0.48 0.18 -0.6 0.36 s-0.3 0.36 -0.42 0.36 c-0.06 0 -0.18 0.06 -0.24 0.18 s-0.48 0.36 -0.9 0.48 s-0.72 0.3 -0.72 0.42 s-0.18 0.3 -0.48 0.42 s-0.72 0.36 -0.9 0.54 c-0.18 0.12 -0.42 0.18 -0.54 0.18 l-0.24 -0.06 l0.06 0.12 c0.12 0.12 0.3 0.18 0.42 0.18 z M16.2 54 c0.18 0 0.36 -0.06 0.48 -0.24 l0.06 -0.18 l-0.06 -0.06 c-0.12 0 -0.24 0.12 -0.48 0.24 l-0.18 0.18 c0 0.06 0.06 0.06 0.18 0.06 z M15.72 54.36 l0.12 -0.06 l0 -0.06 l-0.12 -0.06 l-0.12 0.06 l0 0.06 z M16.98 55.08 c0.06 0 0.18 0 0.24 -0.06 c0.24 -0.12 0.42 -0.3 0.42 -0.36 s-0.06 -0.06 -0.12 -0.06 c-0.18 0.06 -0.54 0.24 -0.6 0.42 l0 0.06 l0.06 0 z M14.16 55.019999999999996 l0.12 -0.06 l0 -0.06 l-0.24 0 l0 0.06 z M15.66 55.56 c0.12 0 0.24 -0.12 0.24 -0.18 c0 -0.12 -0.12 -0.18 -0.18 -0.18 c-0.12 0 -0.18 0.06 -0.24 0.18 l0 0.06 c0 0.06 0.06 0.12 0.18 0.12 z M16.14 55.86 c0.06 0 0.12 -0.06 0.12 -0.18 c0 -0.06 -0.06 -0.12 -0.12 -0.12 l-0.12 0.12 l0 0.06 c0 0.06 0.06 0.12 0.12 0.12 z M14.1 56.52 l0.06 -0.12 c0.06 -0.06 0.18 -0.12 0.3 -0.12 l0.3 0.06 l0.06 -0.06 l-0.06 -0.12 c-0.12 -0.18 -0.36 -0.3 -0.48 -0.3 l-0.12 0 l-0.06 0.48 l0 0.18 z M18.48 56.22 c0.12 0 0.18 -0.12 0.18 -0.18 c0 -0.12 -0.06 -0.18 -0.12 -0.18 c0 0 -0.12 0.06 -0.12 0.18 l0 0.06 c0 0.06 0 0.12 0.06 0.12 z M15.96 57.18 l-0.06 -0.12 l-0.18 0 l0 0.06 c0 0.06 0.06 0.06 0.12 0.06 l0.12 0 z M13.68 57.66 c0.24 -0.06 0.42 -0.12 0.42 -0.18 l0 -0.06 c0 -0.12 -0.06 -0.18 -0.18 -0.18 l-0.48 0.06 c-0.18 0.06 -0.24 0.12 -0.24 0.18 c0 0.12 0.18 0.18 0.48 0.18 z M12.36 57.72 c0.12 0 0.18 0 0.18 -0.06 l-0.06 -0.06 l-0.12 -0.06 l-0.12 0.06 l0 0.06 z M15.24 58.02 c0.12 0 0.24 -0.06 0.3 -0.18 l0 -0.06 c0 -0.06 0 -0.06 -0.06 -0.06 l-0.3 0.06 l-0.24 -0.18 c-0.06 0 -0.06 0.06 -0.06 0.12 c0.06 0.18 0.18 0.3 0.36 0.3 z M10.86 58.98 l0.12 -0.06 c0.12 -0.06 0.24 -0.12 0.24 -0.18 c0 0 -0.12 -0.06 -0.3 -0.06 c-0.12 0 -0.18 0.06 -0.18 0.12 l0 0.06 c0 0.06 0.06 0.12 0.12 0.12 z M12.42 59.76 l-0.12 0 c-0.06 0 -0.12 0 -0.12 -0.06 c0 -0.12 0.06 -0.18 0.24 -0.18 l0.24 0.06 c0 0.06 -0.12 0.12 -0.24 0.18 z"></path></g><g id="SvgjsG1228" featureKey="nameFeature-0" transform="matrix(0.8688295614773542,0,0,0.8688295614773542,-1.9852754154028844,164.56388852326134)" fill="#ffffff"><path d="M16.094 40.37109 c-7.832 0 -13.809 -5.3711 -13.809 -14.199 c0 -8.7891 5.9766 -14.16 13.809 -14.16 c5.5859 0 10.215 2.7734 12.344 7.5195 l-3.5938 1.4258 c-1.6016 -3.3789 -4.8633 -5.2734 -8.75 -5.2734 c-5.5469 0 -9.9414 3.8281 -9.9414 10.488 c0 6.6992 4.3945 10.527 9.9414 10.527 c3.8867 0 7.1484 -1.8945 8.75 -5.2734 l3.5938 1.4453 c-2.1289 4.7266 -6.7578 7.5 -12.344 7.5 z M51.9094296875 40.37109 c-7.832 0 -13.809 -5.3906 -13.809 -14.199 c0 -8.7891 5.9766 -14.16 13.809 -14.16 c7.793 0 13.789 5.3711 13.789 14.16 c0 8.8086 -5.9961 14.199 -13.789 14.199 z M51.9094296875 36.7187 c5.5273 0 9.9023 -3.8281 9.9023 -10.547 c0 -6.6602 -4.375 -10.488 -9.9023 -10.488 c-5.5469 0 -9.9414 3.8281 -9.9414 10.488 c0 6.7188 4.3945 10.547 9.9414 10.547 z M77.958965625 40 l0 -27.617 l9.1016 0 c8.4961 0 12.813 5.7031 12.813 13.789 c0 8.1445 -4.3164 13.828 -12.813 13.828 l-9.1016 0 z M81.845665625 36.4844 l5.0586 0 c6.0352 0 8.9063 -4.0039 8.9063 -10.313 c0 -6.2695 -2.8711 -10.293 -8.9063 -10.293 l-5.0586 0 l0 20.605 z M127.2512265625 15.879000000000001 l-11.055 0 l0 8.5938 l9.7461 0 l0 3.4766 l-9.7461 0 l0 8.5352 l11.055 0 l0 3.5156 l-15.02 0 l0 -27.617 l15.02 0 l0 3.4961 z M148.26215625 40.37109 c-5.7617 0 -9.9805 -2.7539 -10.918 -7.4414 l3.9648 -0.9375 c0.625 3.2227 3.418 5.0781 7.0898 5.0781 c2.9492 0 5.7813 -1.2109 5.7227 -4.5313 c-0.039063 -3.2813 -3.5938 -4.1797 -7.3633 -5.2148 c-4.2773 -1.1719 -8.5547 -2.5195 -8.5547 -7.5977 c0 -5.1367 4.2383 -7.7148 9.2578 -7.7148 c4.8633 0 9.2383 2.0508 10.273 6.7969 l-3.7695 0.95703 c-0.68359 -3.0664 -3.2422 -4.4336 -6.3281 -4.4336 c-2.7734 0 -5.5273 1.2109 -5.5273 4.3555 c0 2.8516 3.0859 3.6914 6.582 4.6289 c4.3945 1.1914 9.4336 2.5586 9.4336 8.1055 c0 5.5859 -4.6875 7.9492 -9.8633 7.9492 z M188.9018671875 12.383 l3.8672 0 l0 27.617 l-4.1992 0 l-14.434 -21.914 l0 21.914 l-3.8477 0 l0 -27.617 l4.1602 0 l14.453 21.816 l0 -21.816 z M206.943340625 40 l0 -27.617 l3.8867 0 l0 27.617 l-3.8867 0 z M235.6691953125 12.383 c5.0586 0 8.3203 3.8281 8.3203 8.5547 c0 4.7852 -3.2617 8.4766 -8.3203 8.4766 l-6.7578 0 l0 10.586 l-3.8867 0 l0 -27.617 l10.645 0 z M235.0831953125 26.055 c3.2422 0 5.0586 -2.0898 5.0586 -5.1758 c0 -2.9688 -1.8164 -5.1563 -5.0586 -5.1563 l-6.1719 0 l0 10.332 l6.1719 0 z"></path></g>
			</g>
		</svg>
	